<?xml version="1.0" encoding="UTF-8"?>
<!DOCTYPE svg PUBLIC "-//W3C//DTD SVG 1.1//EN" "http://www.w3.org/Graphics/SVG/1.1/DTD/svg11.dtd">
<svg xmlns="http://www.w3.org/2000/svg" version="1.1" width="350px" height="350px" style="shape-rendering:geometricPrecision; text-rendering:geometricPrecision; image-rendering:optimizeQuality; fill-rule:evenodd; clip-rule:evenodd" xmlns:xlink="http://www.w3.org/1999/xlink">
<g><path style="opacity:1" fill="#f2b7a6" d="M 170.5,11.5 C 188.647,11.332 206.314,13.9986 223.5,19.5C 222.391,20.29 221.058,20.79 219.5,21C 224.563,22.3285 224.229,23.3285 218.5,24C 221.833,24.3333 225.167,24.6667 228.5,25C 223.279,25.5423 223.279,26.3756 228.5,27.5C 226.922,28.2978 225.256,28.7978 223.5,29C 226.833,29.3333 230.167,29.6667 233.5,30C 228.279,30.5423 228.279,31.3756 233.5,32.5C 231.922,33.2978 230.256,33.7978 228.5,34C 231.833,34.3333 235.167,34.6667 238.5,35C 233.279,35.5423 233.279,36.3756 238.5,37.5C 236.922,38.2978 235.256,38.7978 233.5,39C 236.833,39.3333 240.167,39.6667 243.5,40C 238.279,40.5423 238.279,41.3756 243.5,42.5C 241.922,43.2978 240.256,43.7978 238.5,44C 241.833,44.3333 245.167,44.6667 248.5,45C 243.279,45.5423 243.279,46.3756 248.5,47.5C 246.922,48.2978 245.256,48.7978 243.5,49C 246.833,49.3333 250.167,49.6667 253.5,50C 248.279,50.5423 248.279,51.3756 253.5,52.5C 251.922,53.2978 250.256,53.7978 248.5,54C 251.833,54.3333 255.167,54.6667 258.5,55C 253.279,55.5423 253.279,56.3756 258.5,57.5C 256.922,58.2978 255.256,58.7978 253.5,59C 256.833,59.3333 260.167,59.6667 263.5,60C 258.279,60.5423 258.279,61.3756 263.5,62.5C 261.922,63.2978 260.256,63.7978 258.5,64C 261.833,64.3333 265.167,64.6667 268.5,65C 263.279,65.5423 263.279,66.3756 268.5,67.5C 266.922,68.2978 265.256,68.7978 263.5,69C 266.833,69.3333 270.167,69.6667 273.5,70C 268.279,70.5423 268.279,71.3756 273.5,72.5C 271.922,73.2978 270.256,73.7978 268.5,74C 271.833,74.3333 275.167,74.6667 278.5,75C 273.279,75.5423 273.279,76.3756 278.5,77.5C 276.922,78.2978 275.256,78.7978 273.5,79C 276.833,79.3333 280.167,79.6667 283.5,80C 278.279,80.5423 278.279,81.3756 283.5,82.5C 281.922,83.2978 280.256,83.7978 278.5,84C 281.833,84.3333 285.167,84.6667 288.5,85C 283.279,85.5423 283.279,86.3756 288.5,87.5C 286.922,88.2978 285.256,88.7978 283.5,89C 286.833,89.3333 290.167,89.6667 293.5,90C 288.279,90.5423 288.279,91.3756 293.5,92.5C 291.922,93.2978 290.256,93.7978 288.5,94C 291.833,94.3333 295.167,94.6667 298.5,95C 293.279,95.5423 293.279,96.3756 298.5,97.5C 296.922,98.2978 295.256,98.7978 293.5,99C 296.833,99.3333 300.167,99.6667 303.5,100C 298.279,100.542 298.279,101.376 303.5,102.5C 301.922,103.298 300.256,103.798 298.5,104C 301.833,104.333 305.167,104.667 308.5,105C 303.279,105.542 303.279,106.376 308.5,107.5C 306.922,108.298 305.256,108.798 303.5,109C 306.833,109.333 310.167,109.667 313.5,110C 308.279,110.542 308.279,111.376 313.5,112.5C 311.922,113.298 310.256,113.798 308.5,114C 311.833,114.333 315.167,114.667 318.5,115C 313.279,115.542 313.279,116.376 318.5,117.5C 316.922,118.298 315.256,118.798 313.5,119C 316.833,119.333 320.167,119.667 323.5,120C 318.279,120.542 318.279,121.376 323.5,122.5C 321.922,123.298 320.256,123.798 318.5,124C 321.833,124.333 325.167,124.667 328.5,125C 323.279,125.542 323.279,126.376 328.5,127.5C 326.922,128.298 325.256,128.798 323.5,129C 326.039,129.796 328.372,129.629 330.5,128.5C 335.191,143.666 337.524,159.332 337.5,175.5C 336.566,176.568 336.232,177.901 336.5,179.5C 334.801,179.66 333.134,179.494 331.5,179C 334.167,178 334.167,177 331.5,176C 332.167,175.667 332.833,175.333 333.5,175C 331.167,174.667 328.833,174.333 326.5,174C 329.167,173 329.167,172 326.5,171C 327.167,170.667 327.833,170.333 328.5,170C 326.167,169.667 323.833,169.333 321.5,169C 324.167,168 324.167,167 321.5,166C 322.167,165.667 322.833,165.333 323.5,165C 321.167,164.667 318.833,164.333 316.5,164C 319.167,163 319.167,162 316.5,161C 317.167,160.667 317.833,160.333 318.5,160C 316.167,159.667 313.833,159.333 311.5,159C 314.167,158 314.167,157 311.5,156C 312.167,155.667 312.833,155.333 313.5,155C 311.167,154.667 308.833,154.333 306.5,154C 309.167,153 309.167,152 306.5,151C 307.167,150.667 307.833,150.333 308.5,150C 306.167,149.667 303.833,149.333 301.5,149C 304.167,148 304.167,147 301.5,146C 302.167,145.667 302.833,145.333 303.5,145C 301.167,144.667 298.833,144.333 296.5,144C 299.167,143 299.167,142 296.5,141C 297.167,140.667 297.833,140.333 298.5,140C 296.167,139.667 293.833,139.333 291.5,139C 294.167,138 294.167,137 291.5,136C 292.167,135.667 292.833,135.333 293.5,135C 291.167,134.667 288.833,134.333 286.5,134C 289.167,133 289.167,132 286.5,131C 287.167,130.667 287.833,130.333 288.5,130C 286.167,129.667 283.833,129.333 281.5,129C 284.167,128 284.167,127 281.5,126C 282.167,125.667 282.833,125.333 283.5,125C 281.167,124.667 278.833,124.333 276.5,124C 279.167,123 279.167,122 276.5,121C 277.167,120.667 277.833,120.333 278.5,120C 276.167,119.667 273.833,119.333 271.5,119C 274.167,118 274.167,117 271.5,116C 272.167,115.667 272.833,115.333 273.5,115C 271.167,114.667 268.833,114.333 266.5,114C 269.167,113 269.167,112 266.5,111C 267.167,110.667 267.833,110.333 268.5,110C 266.167,109.667 263.833,109.333 261.5,109C 264.167,108 264.167,107 261.5,106C 262.167,105.667 262.833,105.333 263.5,105C 261.167,104.667 258.833,104.333 256.5,104C 259.167,103 259.167,102 256.5,101C 257.167,100.667 257.833,100.333 258.5,100C 256.167,99.6667 253.833,99.3333 251.5,99C 254.167,98 254.167,97 251.5,96C 252.167,95.6667 252.833,95.3333 253.5,95C 251.167,94.6667 248.833,94.3333 246.5,94C 249.167,93 249.167,92 246.5,91C 247.167,90.6667 247.833,90.3333 248.5,90C 246.167,89.6667 243.833,89.3333 241.5,89C 244.167,88 244.167,87 241.5,86C 242.167,85.6667 242.833,85.3333 243.5,85C 241.167,84.6667 238.833,84.3333 236.5,84C 239.167,83 239.167,82 236.5,81C 237.167,80.6667 237.833,80.3333 238.5,80C 236.167,79.6667 233.833,79.3333 231.5,79C 234.167,78 234.167,77 231.5,76C 232.167,75.6667 232.833,75.3333 233.5,75C 231.167,74.6667 228.833,74.3333 226.5,74C 229.167,73 229.167,72 226.5,71C 227.167,70.6667 227.833,70.3333 228.5,70C 226.167,69.6667 223.833,69.3333 221.5,69C 224.167,68 224.167,67 221.5,66C 222.167,65.6667 222.833,65.3333 223.5,65C 221.167,64.6667 218.833,64.3333 216.5,64C 219.167,63 219.167,62 216.5,61C 217.167,60.6667 217.833,60.3333 218.5,60C 216.167,59.6667 213.833,59.3333 211.5,59C 214.167,58 214.167,57 211.5,56C 212.167,55.6667 212.833,55.3333 213.5,55C 211.167,54.6667 208.833,54.3333 206.5,54C 209.167,53 209.167,52 206.5,51C 207.167,50.6667 207.833,50.3333 208.5,50C 206.167,49.6667 203.833,49.3333 201.5,49C 204.167,48 204.167,47 201.5,46C 202.167,45.6667 202.833,45.3333 203.5,45C 201.167,44.6667 198.833,44.3333 196.5,44C 199.167,43 199.167,42 196.5,41C 197.167,40.6667 197.833,40.3333 198.5,40C 196.167,39.6667 193.833,39.3333 191.5,39C 194.167,38 194.167,37 191.5,36C 192.167,35.6667 192.833,35.3333 193.5,35C 191.167,34.6667 188.833,34.3333 186.5,34C 189.167,33 189.167,32 186.5,31C 187.167,30.6667 187.833,30.3333 188.5,30C 186.167,29.6667 183.833,29.3333 181.5,29C 184.167,28 184.167,27 181.5,26C 182.167,25.6667 182.833,25.3333 183.5,25C 181.167,24.6667 178.833,24.3333 176.5,24C 179.167,23 179.167,22 176.5,21C 177.167,20.6667 177.833,20.3333 178.5,20C 176.167,19.6667 173.833,19.3333 171.5,19C 174.167,18 174.167,17 171.5,16C 172.167,15.6667 172.833,15.3333 173.5,15C 171.167,14.6667 168.833,14.3333 166.5,14C 168.066,13.3918 169.4,12.5585 170.5,11.5 Z"/></g>
<g><path style="opacity:1" fill="#efb2ab" d="M 170.5,11.5 C 169.4,12.5585 168.066,13.3918 166.5,14C 168.833,14.3333 171.167,14.6667 173.5,15C 172.833,15.3333 172.167,15.6667 171.5,16C 174.167,17 174.167,18 171.5,19C 173.833,19.3333 176.167,19.6667 178.5,20C 177.833,20.3333 177.167,20.6667 176.5,21C 179.167,22 179.167,23 176.5,24C 178.833,24.3333 181.167,24.6667 183.5,25C 182.833,25.3333 182.167,25.6667 181.5,26C 184.167,27 184.167,28 181.5,29C 183.833,29.3333 186.167,29.6667 188.5,30C 187.833,30.3333 187.167,30.6667 186.5,31C 189.167,32 189.167,33 186.5,34C 188.833,34.3333 191.167,34.6667 193.5,35C 192.833,35.3333 192.167,35.6667 191.5,36C 194.167,37 194.167,38 191.5,39C 193.833,39.3333 196.167,39.6667 198.5,40C 197.833,40.3333 197.167,40.6667 196.5,41C 199.167,42 199.167,43 196.5,44C 198.833,44.3333 201.167,44.6667 203.5,45C 202.833,45.3333 202.167,45.6667 201.5,46C 204.167,47 204.167,48 201.5,49C 203.833,49.3333 206.167,49.6667 208.5,50C 207.833,50.3333 207.167,50.6667 206.5,51C 209.167,52 209.167,53 206.5,54C 208.833,54.3333 211.167,54.6667 213.5,55C 212.833,55.3333 212.167,55.6667 211.5,56C 214.167,57 214.167,58 211.5,59C 213.833,59.3333 216.167,59.6667 218.5,60C 217.833,60.3333 217.167,60.6667 216.5,61C 219.167,62 219.167,63 216.5,64C 218.833,64.3333 221.167,64.6667 223.5,65C 222.833,65.3333 222.167,65.6667 221.5,66C 224.167,67 224.167,68 221.5,69C 223.833,69.3333 226.167,69.6667 228.5,70C 227.833,70.3333 227.167,70.6667 226.5,71C 229.167,72 229.167,73 226.5,74C 228.833,74.3333 231.167,74.6667 233.5,75C 232.833,75.3333 232.167,75.6667 231.5,76C 234.167,77 234.167,78 231.5,79C 233.833,79.3333 236.167,79.6667 238.5,80C 237.833,80.3333 237.167,80.6667 236.5,81C 239.167,82 239.167,83 236.5,84C 238.833,84.3333 241.167,84.6667 243.5,85C 242.833,85.3333 242.167,85.6667 241.5,86C 244.167,87 244.167,88 241.5,89C 243.833,89.3333 246.167,89.6667 248.5,90C 247.833,90.3333 247.167,90.6667 246.5,91C 249.167,92 249.167,93 246.5,94C 248.833,94.3333 251.167,94.6667 253.5,95C 252.833,95.3333 252.167,95.6667 251.5,96C 254.167,97 254.167,98 251.5,99C 253.833,99.3333 256.167,99.6667 258.5,100C 257.833,100.333 257.167,100.667 256.5,101C 259.167,102 259.167,103 256.5,104C 258.833,104.333 261.167,104.667 263.5,105C 262.833,105.333 262.167,105.667 261.5,106C 264.167,107 264.167,108 261.5,109C 263.833,109.333 266.167,109.667 268.5,110C 267.833,110.333 267.167,110.667 266.5,111C 269.167,112 269.167,113 266.5,114C 268.833,114.333 271.167,114.667 273.5,115C 272.833,115.333 272.167,115.667 271.5,116C 274.167,117 274.167,118 271.5,119C 273.833,119.333 276.167,119.667 278.5,120C 277.833,120.333 277.167,120.667 276.5,121C 279.167,122 279.167,123 276.5,124C 278.833,124.333 281.167,124.667 283.5,125C 282.833,125.333 282.167,125.667 281.5,126C 284.167,127 284.167,128 281.5,129C 283.833,129.333 286.167,129.667 288.5,130C 287.833,130.333 287.167,130.667 286.5,131C 289.167,132 289.167,133 286.5,134C 288.833,134.333 291.167,134.667 293.5,135C 292.833,135.333 292.167,135.667 291.5,136C 294.167,137 294.167,138 291.5,139C 293.833,139.333 296.167,139.667 298.5,140C 297.833,140.333 297.167,140.667 296.5,141C 299.167,142 299.167,143 296.5,144C 298.833,144.333 301.167,144.667 303.5,145C 302.833,145.333 302.167,145.667 301.5,146C 304.167,147 304.167,148 301.5,149C 303.833,149.333 306.167,149.667 308.5,150C 307.833,150.333 307.167,150.667 306.5,151C 309.167,152 309.167,153 306.5,154C 308.833,154.333 311.167,154.667 313.5,155C 312.833,155.333 312.167,155.667 311.5,156C 314.167,157 314.167,158 311.5,159C 313.833,159.333 316.167,159.667 318.5,160C 317.833,160.333 317.167,160.667 316.5,161C 319.167,162 319.167,163 316.5,164C 318.833,164.333 321.167,164.667 323.5,165C 322.833,165.333 322.167,165.667 321.5,166C 324.167,167 324.167,168 321.5,169C 323.833,169.333 326.167,169.667 328.5,170C 327.833,170.333 327.167,170.667 326.5,171C 329.167,172 329.167,173 326.5,174C 328.833,174.333 331.167,174.667 333.5,175C 332.833,175.333 332.167,175.667 331.5,176C 334.167,177 334.167,178 331.5,179C 333.134,179.494 334.801,179.66 336.5,179.5C 336.232,177.901 336.566,176.568 337.5,175.5C 337.211,189.223 335.211,202.556 331.5,215.5C 329.071,214.735 327.738,213.069 327.5,210.5C 320.866,210.323 320.866,209.823 327.5,209C 325.866,208.506 324.199,208.34 322.5,208.5C 322.5,207.5 322.5,206.5 322.5,205.5C 319.5,205.167 317.833,203.5 317.5,200.5C 310.866,200.323 310.866,199.823 317.5,199C 315.866,198.506 314.199,198.34 312.5,198.5C 312.5,197.5 312.5,196.5 312.5,195.5C 309.5,195.167 307.833,193.5 307.5,190.5C 300.866,190.323 300.866,189.823 307.5,189C 305.866,188.506 304.199,188.34 302.5,188.5C 302.5,187.5 302.5,186.5 302.5,185.5C 299.5,185.167 297.833,183.5 297.5,180.5C 290.866,180.323 290.866,179.823 297.5,179C 295.866,178.506 294.199,178.34 292.5,178.5C 292.5,177.5 292.5,176.5 292.5,175.5C 289.5,175.167 287.833,173.5 287.5,170.5C 280.866,170.323 280.866,169.823 287.5,169C 285.866,168.506 284.199,168.34 282.5,168.5C 282.5,167.5 282.5,166.5 282.5,165.5C 279.5,165.167 277.833,163.5 277.5,160.5C 270.866,160.323 270.866,159.823 277.5,159C 275.866,158.506 274.199,158.34 272.5,158.5C 272.5,157.5 272.5,156.5 272.5,155.5C 269.5,155.167 267.833,153.5 267.5,150.5C 260.866,150.323 260.866,149.823 267.5,149C 265.866,148.506 264.199,148.34 262.5,148.5C 262.5,147.5 262.5,146.5 262.5,145.5C 259.5,145.167 257.833,143.5 257.5,140.5C 250.866,140.323 250.866,139.823 257.5,139C 255.866,138.506 254.199,138.34 252.5,138.5C 252.5,137.5 252.5,136.5 252.5,135.5C 249.5,135.167 247.833,133.5 247.5,130.5C 240.866,130.323 240.866,129.823 247.5,129C 245.866,128.506 244.199,128.34 242.5,128.5C 242.5,127.5 242.5,126.5 242.5,125.5C 239.585,124.576 237.252,122.909 235.5,120.5C 234.408,112.543 232.241,104.876 229,97.5C 223.972,89.2851 218.805,81.1185 213.5,73C 205.816,70.658 198.816,66.9913 192.5,62C 187.5,61.6667 182.5,61.3333 177.5,61C 175.509,60.6264 173.842,59.793 172.5,58.5C 172.5,57.5 172.5,56.5 172.5,55.5C 169.5,55.1667 167.833,53.5 167.5,50.5C 160.866,50.3232 160.866,49.8232 167.5,49C 165.866,48.5065 164.199,48.3398 162.5,48.5C 162.5,47.5 162.5,46.5 162.5,45.5C 159.5,45.1667 157.833,43.5 157.5,40.5C 150.866,40.3232 150.866,39.8232 157.5,39C 155.866,38.5065 154.199,38.3398 152.5,38.5C 152.5,37.5 152.5,36.5 152.5,35.5C 149.5,35.1667 147.833,33.5 147.5,30.5C 140.866,30.3232 140.866,29.8232 147.5,29C 145.866,28.5065 144.199,28.3398 142.5,28.5C 142.5,27.5 142.5,26.5 142.5,25.5C 139.5,25.1667 137.833,23.5 137.5,20.5C 130.866,20.3232 130.866,19.8232 137.5,19C 135.618,18.8019 133.952,18.3019 132.5,17.5C 136.59,15.8919 140.923,14.7252 145.5,14C 153.838,13.1109 162.172,12.2775 170.5,11.5 Z"/></g>
<g><path style="opacity:1" fill="#ecacb1" d="M 132.5,17.5 C 133.952,18.3019 135.618,18.8019 137.5,19C 130.866,19.8232 130.866,20.3232 137.5,20.5C 137.833,23.5 139.5,25.1667 142.5,25.5C 142.5,26.5 142.5,27.5 142.5,28.5C 144.199,28.3398 145.866,28.5065 147.5,29C 140.866,29.8232 140.866,30.3232 147.5,30.5C 147.833,33.5 149.5,35.1667 152.5,35.5C 152.5,36.5 152.5,37.5 152.5,38.5C 154.199,38.3398 155.866,38.5065 157.5,39C 150.866,39.8232 150.866,40.3232 157.5,40.5C 157.833,43.5 159.5,45.1667 162.5,45.5C 162.5,46.5 162.5,47.5 162.5,48.5C 164.199,48.3398 165.866,48.5065 167.5,49C 160.866,49.8232 160.866,50.3232 167.5,50.5C 167.833,53.5 169.5,55.1667 172.5,55.5C 172.5,56.5 172.5,57.5 172.5,58.5C 169.246,57.5207 165.913,56.8541 162.5,56.5C 157.224,57.755 151.891,58.755 146.5,59.5C 141.517,58.5769 136.517,58.4102 131.5,59C 129.283,60.7235 126.95,62.2235 124.5,63.5C 122.158,63.2252 122.158,62.3919 124.5,61C 123.167,60.6667 121.833,60.3333 120.5,60C 121.167,59.6667 121.833,59.3333 122.5,59C 120.833,58.6667 119.167,58.3333 117.5,58C 119.912,55.9646 119.245,54.9646 115.5,55C 116.167,54.6667 116.833,54.3333 117.5,54C 115.833,53.6667 114.167,53.3333 112.5,53C 114.912,50.9646 114.245,49.9646 110.5,50C 111.167,49.6667 111.833,49.3333 112.5,49C 110.833,48.6667 109.167,48.3333 107.5,48C 109.912,45.9646 109.245,44.9646 105.5,45C 106.167,44.6667 106.833,44.3333 107.5,44C 105.833,43.6667 104.167,43.3333 102.5,43C 104.912,40.9646 104.245,39.9646 100.5,40C 101.167,39.6667 101.833,39.3333 102.5,39C 100.833,38.6667 99.1667,38.3333 97.5,38C 98.1667,37.3333 98.8333,36.6667 99.5,36C 97.0458,35.4097 95.3791,34.5764 94.5,33.5C 95.5736,32.1154 96.9069,30.9487 98.5,30C 109.347,24.4055 120.68,20.2388 132.5,17.5 Z"/></g>
<g><path style="opacity:1" fill="#e9a7b8" d="M 94.5,33.5 C 95.3791,34.5764 97.0458,35.4097 99.5,36C 98.8333,36.6667 98.1667,37.3333 97.5,38C 99.1667,38.3333 100.833,38.6667 102.5,39C 101.833,39.3333 101.167,39.6667 100.5,40C 104.245,39.9646 104.912,40.9646 102.5,43C 104.167,43.3333 105.833,43.6667 107.5,44C 106.833,44.3333 106.167,44.6667 105.5,45C 109.245,44.9646 109.912,45.9646 107.5,48C 109.167,48.3333 110.833,48.6667 112.5,49C 111.833,49.3333 111.167,49.6667 110.5,50C 114.245,49.9646 114.912,50.9646 112.5,53C 114.167,53.3333 115.833,53.6667 117.5,54C 116.833,54.3333 116.167,54.6667 115.5,55C 119.245,54.9646 119.912,55.9646 117.5,58C 119.167,58.3333 120.833,58.6667 122.5,59C 121.833,59.3333 121.167,59.6667 120.5,60C 121.833,60.3333 123.167,60.6667 124.5,61C 122.158,62.3919 122.158,63.2252 124.5,63.5C 123.942,64.7899 122.942,65.6232 121.5,66C 116.519,66.4889 111.852,67.8222 107.5,70C 104.268,74.3276 100.934,78.4943 97.5,82.5C 97.4226,81.2502 96.756,80.4169 95.5,80C 96.1667,79.6667 96.8333,79.3333 97.5,79C 95.8659,78.5065 94.1992,78.3398 92.5,78.5C 92.6399,76.8762 91.9733,75.7096 90.5,75C 91.1667,74.6667 91.8333,74.3333 92.5,74C 90.8659,73.5065 89.1992,73.3398 87.5,73.5C 87.6399,71.8762 86.9733,70.7096 85.5,70C 86.1667,69.6667 86.8333,69.3333 87.5,69C 85.8659,68.5065 84.1992,68.3398 82.5,68.5C 82.6399,66.8762 81.9733,65.7096 80.5,65C 81.1667,64.6667 81.8333,64.3333 82.5,64C 80.8659,63.5065 79.1992,63.3398 77.5,63.5C 77.6399,61.8762 76.9733,60.7096 75.5,60C 76.1667,59.6667 76.8333,59.3333 77.5,59C 75.8659,58.5065 74.1992,58.3398 72.5,58.5C 72.6399,56.8762 71.9733,55.7096 70.5,55C 71.1667,54.6667 71.8333,54.3333 72.5,54C 70.6183,53.8019 68.9516,53.3019 67.5,52.5C 75.265,44.4475 84.265,38.1141 94.5,33.5 Z"/></g>
<g><path style="opacity:1" fill="#fa90a2" d="M 58.5,43.5 C 56.1891,46.147 53.8558,48.8136 51.5,51.5C 53.8558,54.1864 56.1891,56.853 58.5,59.5C 53.8333,65.1667 49.1667,70.8333 44.5,76.5C 37.5471,85.4048 31.8804,95.0715 27.5,105.5C 20.8019,117.93 16.4686,131.264 14.5,145.5C 13.5233,148.287 13.19,151.287 13.5,154.5C 11.4125,166.31 11.0791,178.31 12.5,190.5C 13.2718,197.744 14.6052,204.744 16.5,211.5C 23.5921,241.887 37.9254,268.221 59.5,290.5C 56.0969,292.9 53.4302,295.9 51.5,299.5C 22.1564,270.179 4.82304,234.846 -0.5,193.5C -0.5,180.833 -0.5,168.167 -0.5,155.5C 5.10126,111.464 24.1013,74.2972 56.5,44C 57.0944,43.5357 57.7611,43.369 58.5,43.5 Z"/></g>
<g><path style="opacity:1" fill="#fb929f" d="M 157.5,-0.5 C 168.833,-0.5 180.167,-0.5 191.5,-0.5C 252.374,7.22356 298.207,37.5569 329,90.5C 339.718,111.07 346.552,132.737 349.5,155.5C 349.5,168.167 349.5,180.833 349.5,193.5C 337.83,268.342 296.163,318.176 224.5,343C 213.824,345.842 203.157,348.009 192.5,349.5C 180.833,349.5 169.167,349.5 157.5,349.5C 138.651,347.621 120.651,342.621 103.5,334.5C 100.055,332.274 96.3888,330.274 92.5,328.5C 91.8933,328.624 91.56,328.957 91.5,329.5C 76.7285,321.392 63.3951,311.392 51.5,299.5C 53.4302,295.9 56.0969,292.9 59.5,290.5C 66.285,296.439 73.285,302.273 80.5,308C 83.7271,310.112 87.0604,311.945 90.5,313.5C 91.5137,314.674 92.847,315.34 94.5,315.5C 110.132,325.306 127.132,331.806 145.5,335C 174.837,339.458 203.504,336.792 231.5,327C 237.119,325.524 242.119,323.024 246.5,319.5C 247.959,319.567 249.292,319.234 250.5,318.5C 258.519,314.829 265.852,310.162 272.5,304.5C 282.126,297.874 290.46,289.874 297.5,280.5C 300.645,277.54 303.312,274.207 305.5,270.5C 310.341,265.646 314.007,259.98 316.5,253.5C 320.623,246.919 323.957,239.919 326.5,232.5C 328.771,227.02 330.437,221.353 331.5,215.5C 335.211,202.556 337.211,189.223 337.5,175.5C 337.524,159.332 335.191,143.666 330.5,128.5C 313.542,74.2048 277.875,37.8715 223.5,19.5C 206.314,13.9986 188.647,11.332 170.5,11.5C 162.172,12.2775 153.838,13.1109 145.5,14C 140.923,14.7252 136.59,15.8919 132.5,17.5C 120.68,20.2388 109.347,24.4055 98.5,30C 96.9069,30.9487 95.5736,32.1154 94.5,33.5C 84.265,38.1141 75.265,44.4475 67.5,52.5C 64.2139,54.4512 61.2139,56.7846 58.5,59.5C 56.1891,56.853 53.8558,54.1864 51.5,51.5C 53.8558,48.8136 56.1891,46.147 58.5,43.5C 77.2149,25.6307 99.2149,13.1307 124.5,6C 135.478,2.97056 146.478,0.803898 157.5,-0.5 Z"/></g>
<g><path style="opacity:1" fill="#e7a3bd" d="M 67.5,52.5 C 68.9516,53.3019 70.6183,53.8019 72.5,54C 71.8333,54.3333 71.1667,54.6667 70.5,55C 71.9733,55.7096 72.6399,56.8762 72.5,58.5C 74.1992,58.3398 75.8659,58.5065 77.5,59C 76.8333,59.3333 76.1667,59.6667 75.5,60C 76.9733,60.7096 77.6399,61.8762 77.5,63.5C 79.1992,63.3398 80.8659,63.5065 82.5,64C 81.8333,64.3333 81.1667,64.6667 80.5,65C 81.9733,65.7096 82.6399,66.8762 82.5,68.5C 84.1992,68.3398 85.8659,68.5065 87.5,69C 86.8333,69.3333 86.1667,69.6667 85.5,70C 86.9733,70.7096 87.6399,71.8762 87.5,73.5C 89.1992,73.3398 90.8659,73.5065 92.5,74C 91.8333,74.3333 91.1667,74.6667 90.5,75C 91.9733,75.7096 92.6399,76.8762 92.5,78.5C 94.1992,78.3398 95.8659,78.5065 97.5,79C 96.8333,79.3333 96.1667,79.6667 95.5,80C 96.756,80.4169 97.4226,81.2502 97.5,82.5C 96.0193,86.3293 94.8527,90.3293 94,94.5C 92.8381,104.146 92.0047,113.813 91.5,123.5C 90.2823,122.269 88.949,121.102 87.5,120C 88.1667,119.667 88.8333,119.333 89.5,119C 88.062,118.781 86.7287,118.281 85.5,117.5C 86.0253,116.808 86.6919,116.308 87.5,116C 85.8333,115.667 84.1667,115.333 82.5,115C 83.1667,114.667 83.8333,114.333 84.5,114C 83.1667,113.667 81.8333,113.333 80.5,113C 79.8333,111.667 78.8333,110.667 77.5,110C 78.1667,109.667 78.8333,109.333 79.5,109C 78.062,108.781 76.7287,108.281 75.5,107.5C 76.0253,106.808 76.6919,106.308 77.5,106C 75.8333,105.667 74.1667,105.333 72.5,105C 73.1667,104.667 73.8333,104.333 74.5,104C 73.1667,103.667 71.8333,103.333 70.5,103C 69.8333,101.667 68.8333,100.667 67.5,100C 68.1667,99.6667 68.8333,99.3333 69.5,99C 68.062,98.7811 66.7287,98.2811 65.5,97.5C 66.0253,96.8076 66.6919,96.3076 67.5,96C 65.8333,95.6667 64.1667,95.3333 62.5,95C 63.1667,94.6667 63.8333,94.3333 64.5,94C 63.1667,93.6667 61.8333,93.3333 60.5,93C 59.8333,91.6667 58.8333,90.6667 57.5,90C 58.1667,89.6667 58.8333,89.3333 59.5,89C 58.062,88.7811 56.7287,88.2811 55.5,87.5C 56.0253,86.8076 56.6919,86.3076 57.5,86C 55.8333,85.6667 54.1667,85.3333 52.5,85C 53.1667,84.6667 53.8333,84.3333 54.5,84C 53.1667,83.6667 51.8333,83.3333 50.5,83C 49.8333,81.6667 48.8333,80.6667 47.5,80C 48.1667,79.6667 48.8333,79.3333 49.5,79C 47.4971,78.6655 45.8304,77.8321 44.5,76.5C 49.1667,70.8333 53.8333,65.1667 58.5,59.5C 61.2139,56.7846 64.2139,54.4512 67.5,52.5 Z"/></g>
<g><path style="opacity:1" fill="#120c0a" d="M 172.5,58.5 C 173.842,59.793 175.509,60.6264 177.5,61C 182.5,61.3333 187.5,61.6667 192.5,62C 198.816,66.9913 205.816,70.658 213.5,73C 218.805,81.1185 223.972,89.2851 229,97.5C 232.241,104.876 234.408,112.543 235.5,120.5C 236.684,126.01 236.684,131.51 235.5,137C 236.778,141.309 238.111,145.476 239.5,149.5C 242.036,162.641 245.036,175.641 248.5,188.5C 249.224,196.479 249.558,204.479 249.5,212.5C 248.629,218.3 246.963,223.967 244.5,229.5C 240.141,239.864 233.808,248.864 225.5,256.5C 218.089,262.372 209.756,266.372 200.5,268.5C 200.675,276.041 202.008,283.374 204.5,290.5C 206.766,291.314 209.1,291.814 211.5,292C 216.318,297.307 220.652,302.973 224.5,309C 233.013,311.06 241.347,313.727 249.5,317C 250.056,317.383 250.389,317.883 250.5,318.5C 249.292,319.234 247.959,319.567 246.5,319.5C 239.109,316.547 231.443,314.214 223.5,312.5C 193.576,321.294 163.243,322.794 132.5,317C 124.312,315.453 116.312,313.287 108.5,310.5C 103.613,311.613 98.9466,313.279 94.5,315.5C 92.847,315.34 91.5137,314.674 90.5,313.5C 95.8141,311.335 101.147,309.169 106.5,307C 108.495,304.843 109.828,302.343 110.5,299.5C 112.592,296.912 113.925,293.912 114.5,290.5C 115.234,289.071 116.401,288.071 118,287.5C 120.047,288.609 122.213,289.276 124.5,289.5C 125.364,283.047 126.698,276.713 128.5,270.5C 129.657,267.727 130.324,264.727 130.5,261.5C 132.572,258.544 133.406,255.21 133,251.5C 123.121,241.076 116.955,228.743 114.5,214.5C 109.733,214.809 105.066,214.309 100.5,213C 98.6217,211.457 97.1217,209.624 96,207.5C 94.6447,203.11 92.978,198.777 91,194.5C 90.3333,190.167 90.3333,185.833 91,181.5C 92.371,178.734 94.2043,176.401 96.5,174.5C 98.1477,173.19 99.8144,171.857 101.5,170.5C 96.4094,162.397 92.5761,153.73 90,144.5C 90.984,137.673 91.484,130.673 91.5,123.5C 92.0047,113.813 92.8381,104.146 94,94.5C 94.8527,90.3293 96.0193,86.3293 97.5,82.5C 100.934,78.4943 104.268,74.3276 107.5,70C 111.852,67.8222 116.519,66.4889 121.5,66C 122.942,65.6232 123.942,64.7899 124.5,63.5C 126.95,62.2235 129.283,60.7235 131.5,59C 136.517,58.4102 141.517,58.5769 146.5,59.5C 151.891,58.755 157.224,57.755 162.5,56.5C 165.913,56.8541 169.246,57.5207 172.5,58.5 Z"/></g>
<g><path style="opacity:1" fill="#f17f4f" d="M 156.5,59.5 C 164.298,58.7833 171.631,60.2833 178.5,64C 188.79,62.4855 197.456,65.4855 204.5,73C 206.5,73.3333 208.5,73.6667 210.5,74C 215.155,79.167 218.822,85.0003 221.5,91.5C 175.31,92.2326 133.31,105.566 95.5,131.5C 94.1331,118.439 94.6331,105.439 97,92.5C 99.5749,84.1961 104.075,77.0295 110.5,71C 119.086,70.3726 126.42,67.0393 132.5,61C 137.301,60.3504 141.968,60.8504 146.5,62.5C 150.224,62.4077 153.558,61.4077 156.5,59.5 Z"/></g>
<g><path style="opacity:1" fill="#f4bba2" d="M 223.5,19.5 C 277.875,37.8715 313.542,74.2048 330.5,128.5C 328.372,129.629 326.039,129.796 323.5,129C 325.256,128.798 326.922,128.298 328.5,127.5C 323.279,126.376 323.279,125.542 328.5,125C 325.167,124.667 321.833,124.333 318.5,124C 320.256,123.798 321.922,123.298 323.5,122.5C 318.279,121.376 318.279,120.542 323.5,120C 320.167,119.667 316.833,119.333 313.5,119C 315.256,118.798 316.922,118.298 318.5,117.5C 313.279,116.376 313.279,115.542 318.5,115C 315.167,114.667 311.833,114.333 308.5,114C 310.256,113.798 311.922,113.298 313.5,112.5C 308.279,111.376 308.279,110.542 313.5,110C 310.167,109.667 306.833,109.333 303.5,109C 305.256,108.798 306.922,108.298 308.5,107.5C 303.279,106.376 303.279,105.542 308.5,105C 305.167,104.667 301.833,104.333 298.5,104C 300.256,103.798 301.922,103.298 303.5,102.5C 298.279,101.376 298.279,100.542 303.5,100C 300.167,99.6667 296.833,99.3333 293.5,99C 295.256,98.7978 296.922,98.2978 298.5,97.5C 293.279,96.3756 293.279,95.5423 298.5,95C 295.167,94.6667 291.833,94.3333 288.5,94C 290.256,93.7978 291.922,93.2978 293.5,92.5C 288.279,91.3756 288.279,90.5423 293.5,90C 290.167,89.6667 286.833,89.3333 283.5,89C 285.256,88.7978 286.922,88.2978 288.5,87.5C 283.279,86.3756 283.279,85.5423 288.5,85C 285.167,84.6667 281.833,84.3333 278.5,84C 280.256,83.7978 281.922,83.2978 283.5,82.5C 278.279,81.3756 278.279,80.5423 283.5,80C 280.167,79.6667 276.833,79.3333 273.5,79C 275.256,78.7978 276.922,78.2978 278.5,77.5C 273.279,76.3756 273.279,75.5423 278.5,75C 275.167,74.6667 271.833,74.3333 268.5,74C 270.256,73.7978 271.922,73.2978 273.5,72.5C 268.279,71.3756 268.279,70.5423 273.5,70C 270.167,69.6667 266.833,69.3333 263.5,69C 265.256,68.7978 266.922,68.2978 268.5,67.5C 263.279,66.3756 263.279,65.5423 268.5,65C 265.167,64.6667 261.833,64.3333 258.5,64C 260.256,63.7978 261.922,63.2978 263.5,62.5C 258.279,61.3756 258.279,60.5423 263.5,60C 260.167,59.6667 256.833,59.3333 253.5,59C 255.256,58.7978 256.922,58.2978 258.5,57.5C 253.279,56.3756 253.279,55.5423 258.5,55C 255.167,54.6667 251.833,54.3333 248.5,54C 250.256,53.7978 251.922,53.2978 253.5,52.5C 248.279,51.3756 248.279,50.5423 253.5,50C 250.167,49.6667 246.833,49.3333 243.5,49C 245.256,48.7978 246.922,48.2978 248.5,47.5C 243.279,46.3756 243.279,45.5423 248.5,45C 245.167,44.6667 241.833,44.3333 238.5,44C 240.256,43.7978 241.922,43.2978 243.5,42.5C 238.279,41.3756 238.279,40.5423 243.5,40C 240.167,39.6667 236.833,39.3333 233.5,39C 235.256,38.7978 236.922,38.2978 238.5,37.5C 233.279,36.3756 233.279,35.5423 238.5,35C 235.167,34.6667 231.833,34.3333 228.5,34C 230.256,33.7978 231.922,33.2978 233.5,32.5C 228.279,31.3756 228.279,30.5423 233.5,30C 230.167,29.6667 226.833,29.3333 223.5,29C 225.256,28.7978 226.922,28.2978 228.5,27.5C 223.279,26.3756 223.279,25.5423 228.5,25C 225.167,24.6667 221.833,24.3333 218.5,24C 224.229,23.3285 224.563,22.3285 219.5,21C 221.058,20.79 222.391,20.29 223.5,19.5 Z"/></g>
<g><path style="opacity:1" fill="#e49dc4" d="M 44.5,76.5 C 45.8304,77.8321 47.4971,78.6655 49.5,79C 48.8333,79.3333 48.1667,79.6667 47.5,80C 48.8333,80.6667 49.8333,81.6667 50.5,83C 51.8333,83.3333 53.1667,83.6667 54.5,84C 53.8333,84.3333 53.1667,84.6667 52.5,85C 54.1667,85.3333 55.8333,85.6667 57.5,86C 56.6919,86.3076 56.0253,86.8076 55.5,87.5C 56.7287,88.2811 58.062,88.7811 59.5,89C 58.8333,89.3333 58.1667,89.6667 57.5,90C 58.8333,90.6667 59.8333,91.6667 60.5,93C 61.8333,93.3333 63.1667,93.6667 64.5,94C 63.8333,94.3333 63.1667,94.6667 62.5,95C 64.1667,95.3333 65.8333,95.6667 67.5,96C 66.6919,96.3076 66.0253,96.8076 65.5,97.5C 66.7287,98.2811 68.062,98.7811 69.5,99C 68.8333,99.3333 68.1667,99.6667 67.5,100C 68.8333,100.667 69.8333,101.667 70.5,103C 71.8333,103.333 73.1667,103.667 74.5,104C 73.8333,104.333 73.1667,104.667 72.5,105C 74.1667,105.333 75.8333,105.667 77.5,106C 76.6919,106.308 76.0253,106.808 75.5,107.5C 76.7287,108.281 78.062,108.781 79.5,109C 78.8333,109.333 78.1667,109.667 77.5,110C 78.8333,110.667 79.8333,111.667 80.5,113C 81.8333,113.333 83.1667,113.667 84.5,114C 83.8333,114.333 83.1667,114.667 82.5,115C 84.1667,115.333 85.8333,115.667 87.5,116C 86.6919,116.308 86.0253,116.808 85.5,117.5C 86.7287,118.281 88.062,118.781 89.5,119C 88.8333,119.333 88.1667,119.667 87.5,120C 88.949,121.102 90.2823,122.269 91.5,123.5C 91.484,130.673 90.984,137.673 90,144.5C 92.5761,153.73 96.4094,162.397 101.5,170.5C 99.8144,171.857 98.1477,173.19 96.5,174.5C 95.1761,171.589 92.8428,170.089 89.5,170C 90.8333,169.667 92.1667,169.333 93.5,169C 90.9333,166.903 87.9333,165.57 84.5,165C 85.8333,164.667 87.1667,164.333 88.5,164C 85.9333,161.903 82.9333,160.57 79.5,160C 80.8333,159.667 82.1667,159.333 83.5,159C 80.9333,156.903 77.9333,155.57 74.5,155C 75.8333,154.667 77.1667,154.333 78.5,154C 75.9333,151.903 72.9333,150.57 69.5,150C 70.8333,149.667 72.1667,149.333 73.5,149C 70.9333,146.903 67.9333,145.57 64.5,145C 65.8333,144.667 67.1667,144.333 68.5,144C 65.9333,141.903 62.9333,140.57 59.5,140C 60.8333,139.667 62.1667,139.333 63.5,139C 60.9333,136.903 57.9333,135.57 54.5,135C 55.8333,134.667 57.1667,134.333 58.5,134C 55.9333,131.903 52.9333,130.57 49.5,130C 50.8333,129.667 52.1667,129.333 53.5,129C 50.9333,126.903 47.9333,125.57 44.5,125C 45.8333,124.667 47.1667,124.333 48.5,124C 45.9333,121.903 42.9333,120.57 39.5,120C 40.8333,119.667 42.1667,119.333 43.5,119C 40.9333,116.903 37.9333,115.57 34.5,115C 35.8333,114.667 37.1667,114.333 38.5,114C 35.9333,111.903 32.9333,110.57 29.5,110C 30.8333,109.667 32.1667,109.333 33.5,109C 31.0727,108.373 29.0727,107.206 27.5,105.5C 31.8804,95.0715 37.5471,85.4048 44.5,76.5 Z"/></g>
<g><path style="opacity:1" fill="#ed7d4d" d="M 198.5,95.5 C 203.511,95.3341 208.511,95.5007 213.5,96C 218.152,106.125 219.152,116.625 216.5,127.5C 212.297,127.726 207.964,127.726 203.5,127.5C 203.666,123.154 203.499,118.821 203,114.5C 201.186,108.228 199.686,101.894 198.5,95.5 Z"/></g>
<g><path style="opacity:1" fill="#eb7c4d" d="M 216.5,95.5 C 219.5,95.5 222.5,95.5 225.5,95.5C 230.716,107.245 233.383,119.578 233.5,132.5C 228.827,131.497 224.161,130.497 219.5,129.5C 221.415,117.886 220.415,106.553 216.5,95.5 Z"/></g>
<g><path style="opacity:1" fill="#ee7e4e" d="M 184.5,96.5 C 188.437,96.2065 192.27,96.5399 196,97.5C 196.723,102.398 198.056,107.065 200,111.5C 200.499,116.489 200.666,121.489 200.5,126.5C 194.155,126.653 187.822,126.986 181.5,127.5C 181.666,123.154 181.499,118.821 181,114.5C 179.391,109.177 177.891,103.844 176.5,98.5C 179.495,98.7062 182.162,98.0395 184.5,96.5 Z"/></g>
<g><path style="opacity:1" fill="#ee7e4e" d="M 170.5,99.5 C 171.675,99.281 172.675,99.6143 173.5,100.5C 177.403,109.442 179.403,118.776 179.5,128.5C 173.5,129.167 167.5,129.833 161.5,130.5C 159.824,121.814 156.491,113.814 151.5,106.5C 157.739,103.698 164.072,101.365 170.5,99.5 Z"/></g>
<g><path style="opacity:1" fill="#e198ca" d="M 27.5,105.5 C 29.0727,107.206 31.0727,108.373 33.5,109C 32.1667,109.333 30.8333,109.667 29.5,110C 32.9333,110.57 35.9333,111.903 38.5,114C 37.1667,114.333 35.8333,114.667 34.5,115C 37.9333,115.57 40.9333,116.903 43.5,119C 42.1667,119.333 40.8333,119.667 39.5,120C 42.9333,120.57 45.9333,121.903 48.5,124C 47.1667,124.333 45.8333,124.667 44.5,125C 47.9333,125.57 50.9333,126.903 53.5,129C 52.1667,129.333 50.8333,129.667 49.5,130C 52.9333,130.57 55.9333,131.903 58.5,134C 57.1667,134.333 55.8333,134.667 54.5,135C 57.9333,135.57 60.9333,136.903 63.5,139C 62.1667,139.333 60.8333,139.667 59.5,140C 62.9333,140.57 65.9333,141.903 68.5,144C 67.1667,144.333 65.8333,144.667 64.5,145C 67.9333,145.57 70.9333,146.903 73.5,149C 72.1667,149.333 70.8333,149.667 69.5,150C 72.9333,150.57 75.9333,151.903 78.5,154C 77.1667,154.333 75.8333,154.667 74.5,155C 77.9333,155.57 80.9333,156.903 83.5,159C 82.1667,159.333 80.8333,159.667 79.5,160C 82.9333,160.57 85.9333,161.903 88.5,164C 87.1667,164.333 85.8333,164.667 84.5,165C 87.9333,165.57 90.9333,166.903 93.5,169C 92.1667,169.333 90.8333,169.667 89.5,170C 92.8428,170.089 95.1761,171.589 96.5,174.5C 94.2043,176.401 92.371,178.734 91,181.5C 90.3333,185.833 90.3333,190.167 91,194.5C 92.978,198.777 94.6447,203.11 96,207.5C 97.1217,209.624 98.6217,211.457 100.5,213C 105.066,214.309 109.733,214.809 114.5,214.5C 116.955,228.743 123.121,241.076 133,251.5C 133.406,255.21 132.572,258.544 130.5,261.5C 130.082,260.778 129.416,260.278 128.5,260C 128.833,259.667 129.167,259.333 129.5,259C 128.062,258.781 126.729,258.281 125.5,257.5C 126.025,256.808 126.692,256.308 127.5,256C 125.166,255.043 122.833,253.876 120.5,252.5C 121.025,251.808 121.692,251.308 122.5,251C 120.166,250.043 117.833,248.876 115.5,247.5C 116.025,246.808 116.692,246.308 117.5,246C 115.166,245.043 112.833,243.876 110.5,242.5C 111.025,241.808 111.692,241.308 112.5,241C 110.166,240.043 107.833,238.876 105.5,237.5C 106.025,236.808 106.692,236.308 107.5,236C 105.166,235.043 102.833,233.876 100.5,232.5C 101.025,231.808 101.692,231.308 102.5,231C 100.166,230.043 97.8326,228.876 95.5,227.5C 96.0253,226.808 96.6919,226.308 97.5,226C 95.1659,225.043 92.8326,223.876 90.5,222.5C 91.0253,221.808 91.6919,221.308 92.5,221C 90.1659,220.043 87.8326,218.876 85.5,217.5C 86.0253,216.808 86.6919,216.308 87.5,216C 85.1659,215.043 82.8326,213.876 80.5,212.5C 81.0253,211.808 81.6919,211.308 82.5,211C 80.1659,210.043 77.8326,208.876 75.5,207.5C 76.0253,206.808 76.6919,206.308 77.5,206C 75.1659,205.043 72.8326,203.876 70.5,202.5C 71.0253,201.808 71.6919,201.308 72.5,201C 70.1659,200.043 67.8326,198.876 65.5,197.5C 66.0253,196.808 66.6919,196.308 67.5,196C 65.1659,195.043 62.8326,193.876 60.5,192.5C 61.0253,191.808 61.6919,191.308 62.5,191C 60.1659,190.043 57.8326,188.876 55.5,187.5C 56.0253,186.808 56.6919,186.308 57.5,186C 55.1659,185.043 52.8326,183.876 50.5,182.5C 51.0253,181.808 51.6919,181.308 52.5,181C 50.1659,180.043 47.8326,178.876 45.5,177.5C 46.0253,176.808 46.6919,176.308 47.5,176C 45.1659,175.043 42.8326,173.876 40.5,172.5C 41.0253,171.808 41.6919,171.308 42.5,171C 40.1659,170.043 37.8326,168.876 35.5,167.5C 36.0253,166.808 36.6919,166.308 37.5,166C 35.1659,165.043 32.8326,163.876 30.5,162.5C 31.0253,161.808 31.6919,161.308 32.5,161C 30.1659,160.043 27.8326,158.876 25.5,157.5C 26.0253,156.808 26.6919,156.308 27.5,156C 26.1667,155.667 24.8333,155.333 23.5,155C 23.8333,154.667 24.1667,154.333 24.5,154C 23.062,153.781 21.7287,153.281 20.5,152.5C 21.0253,151.808 21.6919,151.308 22.5,151C 21.1667,150.667 19.8333,150.333 18.5,150C 18.8333,149.667 19.1667,149.333 19.5,149C 18.062,148.781 16.7287,148.281 15.5,147.5C 18.1306,145.995 17.7973,145.329 14.5,145.5C 16.4686,131.264 20.8019,117.93 27.5,105.5 Z"/></g>
<g><path style="opacity:1" fill="#ee7e4e" d="M 145.5,107.5 C 147.981,107.323 149.814,108.323 151,110.5C 154.627,116.416 157.127,122.749 158.5,129.5C 158.43,130.772 158.097,131.938 157.5,133C 152.196,134.208 147.363,136.375 143,139.5C 138.667,131.496 133.833,123.829 128.5,116.5C 133.782,112.693 139.448,109.693 145.5,107.5 Z"/></g>
<g><path style="opacity:1" fill="#ee7d4e" d="M 123.5,117.5 C 124.552,117.351 125.552,117.517 126.5,118C 132.045,124.561 136.378,131.895 139.5,140C 134.686,143.474 129.852,146.974 125,150.5C 120.458,141.911 115.291,133.744 109.5,126C 114.064,122.89 118.731,120.056 123.5,117.5 Z"/></g>
<g><path style="opacity:1" fill="#eeafaf" d="M 235.5,120.5 C 237.252,122.909 239.585,124.576 242.5,125.5C 242.5,126.5 242.5,127.5 242.5,128.5C 244.199,128.34 245.866,128.506 247.5,129C 240.866,129.823 240.866,130.323 247.5,130.5C 247.833,133.5 249.5,135.167 252.5,135.5C 252.5,136.5 252.5,137.5 252.5,138.5C 254.199,138.34 255.866,138.506 257.5,139C 250.866,139.823 250.866,140.323 257.5,140.5C 257.833,143.5 259.5,145.167 262.5,145.5C 262.5,146.5 262.5,147.5 262.5,148.5C 264.199,148.34 265.866,148.506 267.5,149C 260.866,149.823 260.866,150.323 267.5,150.5C 267.833,153.5 269.5,155.167 272.5,155.5C 272.5,156.5 272.5,157.5 272.5,158.5C 274.199,158.34 275.866,158.506 277.5,159C 270.866,159.823 270.866,160.323 277.5,160.5C 277.833,163.5 279.5,165.167 282.5,165.5C 282.5,166.5 282.5,167.5 282.5,168.5C 284.199,168.34 285.866,168.506 287.5,169C 280.866,169.823 280.866,170.323 287.5,170.5C 287.833,173.5 289.5,175.167 292.5,175.5C 292.5,176.5 292.5,177.5 292.5,178.5C 294.199,178.34 295.866,178.506 297.5,179C 290.866,179.823 290.866,180.323 297.5,180.5C 297.833,183.5 299.5,185.167 302.5,185.5C 302.5,186.5 302.5,187.5 302.5,188.5C 304.199,188.34 305.866,188.506 307.5,189C 300.866,189.823 300.866,190.323 307.5,190.5C 307.833,193.5 309.5,195.167 312.5,195.5C 312.5,196.5 312.5,197.5 312.5,198.5C 314.199,198.34 315.866,198.506 317.5,199C 310.866,199.823 310.866,200.323 317.5,200.5C 317.833,203.5 319.5,205.167 322.5,205.5C 322.5,206.5 322.5,207.5 322.5,208.5C 324.199,208.34 325.866,208.506 327.5,209C 320.866,209.823 320.866,210.323 327.5,210.5C 327.738,213.069 329.071,214.735 331.5,215.5C 330.437,221.353 328.771,227.02 326.5,232.5C 324.914,231.852 323.247,231.352 321.5,231C 322.167,230.667 322.833,230.333 323.5,230C 321.833,229.667 320.167,229.333 318.5,229C 319.5,228.667 320.5,228.333 321.5,228C 320.051,226.883 318.384,226.216 316.5,226C 317.167,225.667 317.833,225.333 318.5,225C 316.833,224.667 315.167,224.333 313.5,224C 314.5,223.667 315.5,223.333 316.5,223C 315.051,221.883 313.384,221.216 311.5,221C 312.167,220.667 312.833,220.333 313.5,220C 311.833,219.667 310.167,219.333 308.5,219C 309.5,218.667 310.5,218.333 311.5,218C 310.051,216.883 308.384,216.216 306.5,216C 307.167,215.667 307.833,215.333 308.5,215C 306.833,214.667 305.167,214.333 303.5,214C 304.5,213.667 305.5,213.333 306.5,213C 305.051,211.883 303.384,211.216 301.5,211C 302.167,210.667 302.833,210.333 303.5,210C 301.833,209.667 300.167,209.333 298.5,209C 299.5,208.667 300.5,208.333 301.5,208C 300.051,206.883 298.384,206.216 296.5,206C 297.167,205.667 297.833,205.333 298.5,205C 296.833,204.667 295.167,204.333 293.5,204C 294.5,203.667 295.5,203.333 296.5,203C 295.051,201.883 293.384,201.216 291.5,201C 292.167,200.667 292.833,200.333 293.5,200C 291.833,199.667 290.167,199.333 288.5,199C 289.5,198.667 290.5,198.333 291.5,198C 290.051,196.883 288.384,196.216 286.5,196C 287.167,195.667 287.833,195.333 288.5,195C 286.833,194.667 285.167,194.333 283.5,194C 284.5,193.667 285.5,193.333 286.5,193C 285.051,191.883 283.384,191.216 281.5,191C 282.167,190.667 282.833,190.333 283.5,190C 281.833,189.667 280.167,189.333 278.5,189C 279.5,188.667 280.5,188.333 281.5,188C 280.051,186.883 278.384,186.216 276.5,186C 277.167,185.667 277.833,185.333 278.5,185C 276.833,184.667 275.167,184.333 273.5,184C 274.5,183.667 275.5,183.333 276.5,183C 275.051,181.883 273.384,181.216 271.5,181C 272.167,180.667 272.833,180.333 273.5,180C 271.833,179.667 270.167,179.333 268.5,179C 269.5,178.667 270.5,178.333 271.5,178C 270.051,176.883 268.384,176.216 266.5,176C 267.167,175.667 267.833,175.333 268.5,175C 266.833,174.667 265.167,174.333 263.5,174C 264.5,173.667 265.5,173.333 266.5,173C 265.051,171.883 263.384,171.216 261.5,171C 262.167,170.667 262.833,170.333 263.5,170C 261.833,169.667 260.167,169.333 258.5,169C 259.5,168.667 260.5,168.333 261.5,168C 260.051,166.883 258.384,166.216 256.5,166C 257.167,165.667 257.833,165.333 258.5,165C 256.833,164.667 255.167,164.333 253.5,164C 254.5,163.667 255.5,163.333 256.5,163C 255.051,161.883 253.384,161.216 251.5,161C 252.167,160.667 252.833,160.333 253.5,160C 251.833,159.667 250.167,159.333 248.5,159C 249.5,158.667 250.5,158.333 251.5,158C 250.051,156.883 248.384,156.216 246.5,156C 247.167,155.667 247.833,155.333 248.5,155C 246.833,154.667 245.167,154.333 243.5,154C 244.5,153.667 245.5,153.333 246.5,153C 245.051,151.883 243.384,151.216 241.5,151C 242.167,150.667 242.833,150.333 243.5,150C 242.207,149.51 240.873,149.343 239.5,149.5C 238.111,145.476 236.778,141.309 235.5,137C 236.684,131.51 236.684,126.01 235.5,120.5 Z"/></g>
<g><path style="opacity:1" fill="#ef7e4e" d="M 105.5,127.5 C 107.716,128.203 109.549,129.536 111,131.5C 114.772,138.046 118.272,144.712 121.5,151.5C 121.333,152.167 121.167,152.833 121,153.5C 114.991,158.343 109.491,163.677 104.5,169.5C 98.6839,160.364 94.3506,150.53 91.5,140C 92.7763,137.719 94.4429,135.719 96.5,134C 99.5672,131.812 102.567,129.645 105.5,127.5 Z"/></g>
<g><path style="opacity:1" fill="#976155" d="M 185.5,129.5 C 191.842,129.334 198.175,129.5 204.5,130C 200.874,130.278 198.874,132.112 198.5,135.5C 204.114,133.205 209.78,133.038 215.5,135C 208.943,136.651 202.276,137.651 195.5,138C 192.898,138.883 190.731,140.383 189,142.5C 189.071,148.51 189.571,154.51 190.5,160.5C 185.484,161.058 180.484,161.725 175.5,162.5C 174.928,157.83 174.261,153.163 173.5,148.5C 173.24,146.382 172.24,144.716 170.5,143.5C 165.969,142.189 161.469,142.189 157,143.5C 156.692,142.692 156.192,142.025 155.5,141.5C 153.465,140.959 151.465,140.292 149.5,139.5C 153.513,136.993 157.847,135.16 162.5,134C 170.344,132.72 178.011,131.22 185.5,129.5 Z"/></g>
<g><path style="opacity:1" fill="#986155" d="M 224.5,138.5 C 226.628,137.371 228.961,137.204 231.5,138C 232.191,139.067 232.691,140.234 233,141.5C 233.667,153.833 233.667,166.167 233,178.5C 221.558,180.468 210.058,181.968 198.5,183C 197.874,182.25 197.374,181.416 197,180.5C 194.91,167.879 193.577,155.212 193,142.5C 201.062,140.795 209.229,139.462 217.5,138.5C 219.945,138.403 222.111,139.07 224,140.5C 225.718,139.969 225.885,139.302 224.5,138.5 Z"/></g>
<g><path style="opacity:1" fill="#e095cf" d="M 14.5,145.5 C 17.7973,145.329 18.1306,145.995 15.5,147.5C 16.7287,148.281 18.062,148.781 19.5,149C 19.1667,149.333 18.8333,149.667 18.5,150C 19.8333,150.333 21.1667,150.667 22.5,151C 21.6919,151.308 21.0253,151.808 20.5,152.5C 21.7287,153.281 23.062,153.781 24.5,154C 24.1667,154.333 23.8333,154.667 23.5,155C 24.8333,155.333 26.1667,155.667 27.5,156C 26.6919,156.308 26.0253,156.808 25.5,157.5C 27.8326,158.876 30.1659,160.043 32.5,161C 31.6919,161.308 31.0253,161.808 30.5,162.5C 32.8326,163.876 35.1659,165.043 37.5,166C 36.6919,166.308 36.0253,166.808 35.5,167.5C 37.8326,168.876 40.1659,170.043 42.5,171C 41.6919,171.308 41.0253,171.808 40.5,172.5C 42.8326,173.876 45.1659,175.043 47.5,176C 46.6919,176.308 46.0253,176.808 45.5,177.5C 47.8326,178.876 50.1659,180.043 52.5,181C 51.6919,181.308 51.0253,181.808 50.5,182.5C 52.8326,183.876 55.1659,185.043 57.5,186C 56.6919,186.308 56.0253,186.808 55.5,187.5C 57.8326,188.876 60.1659,190.043 62.5,191C 61.6919,191.308 61.0253,191.808 60.5,192.5C 62.8326,193.876 65.1659,195.043 67.5,196C 66.6919,196.308 66.0253,196.808 65.5,197.5C 67.8326,198.876 70.1659,200.043 72.5,201C 71.6919,201.308 71.0253,201.808 70.5,202.5C 72.8326,203.876 75.1659,205.043 77.5,206C 76.6919,206.308 76.0253,206.808 75.5,207.5C 77.8326,208.876 80.1659,210.043 82.5,211C 81.6919,211.308 81.0253,211.808 80.5,212.5C 82.8326,213.876 85.1659,215.043 87.5,216C 86.6919,216.308 86.0253,216.808 85.5,217.5C 87.8326,218.876 90.1659,220.043 92.5,221C 91.6919,221.308 91.0253,221.808 90.5,222.5C 92.8326,223.876 95.1659,225.043 97.5,226C 96.6919,226.308 96.0253,226.808 95.5,227.5C 97.8326,228.876 100.166,230.043 102.5,231C 101.692,231.308 101.025,231.808 100.5,232.5C 102.833,233.876 105.166,235.043 107.5,236C 106.692,236.308 106.025,236.808 105.5,237.5C 107.833,238.876 110.166,240.043 112.5,241C 111.692,241.308 111.025,241.808 110.5,242.5C 112.833,243.876 115.166,245.043 117.5,246C 116.692,246.308 116.025,246.808 115.5,247.5C 117.833,248.876 120.166,250.043 122.5,251C 121.692,251.308 121.025,251.808 120.5,252.5C 122.833,253.876 125.166,255.043 127.5,256C 126.692,256.308 126.025,256.808 125.5,257.5C 126.729,258.281 128.062,258.781 129.5,259C 129.167,259.333 128.833,259.667 128.5,260C 129.416,260.278 130.082,260.778 130.5,261.5C 130.324,264.727 129.657,267.727 128.5,270.5C 128.5,269.167 128.5,267.833 128.5,266.5C 123.206,266.318 123.206,265.818 128.5,265C 125.167,264.667 121.833,264.333 118.5,264C 124.229,263.328 124.563,262.328 119.5,261C 120.833,260.667 122.167,260.333 123.5,260C 120.167,259.667 116.833,259.333 113.5,259C 119.229,258.328 119.563,257.328 114.5,256C 115.833,255.667 117.167,255.333 118.5,255C 115.167,254.667 111.833,254.333 108.5,254C 114.229,253.328 114.563,252.328 109.5,251C 110.833,250.667 112.167,250.333 113.5,250C 110.167,249.667 106.833,249.333 103.5,249C 109.229,248.328 109.563,247.328 104.5,246C 105.833,245.667 107.167,245.333 108.5,245C 105.167,244.667 101.833,244.333 98.5,244C 104.229,243.328 104.563,242.328 99.5,241C 100.833,240.667 102.167,240.333 103.5,240C 100.167,239.667 96.8333,239.333 93.5,239C 99.2293,238.328 99.5626,237.328 94.5,236C 95.8333,235.667 97.1667,235.333 98.5,235C 95.1667,234.667 91.8333,234.333 88.5,234C 94.2293,233.328 94.5626,232.328 89.5,231C 90.8333,230.667 92.1667,230.333 93.5,230C 90.1667,229.667 86.8333,229.333 83.5,229C 89.2293,228.328 89.5626,227.328 84.5,226C 85.8333,225.667 87.1667,225.333 88.5,225C 85.1667,224.667 81.8333,224.333 78.5,224C 84.2293,223.328 84.5626,222.328 79.5,221C 80.8333,220.667 82.1667,220.333 83.5,220C 80.1667,219.667 76.8333,219.333 73.5,219C 79.2293,218.328 79.5626,217.328 74.5,216C 75.8333,215.667 77.1667,215.333 78.5,215C 75.1667,214.667 71.8333,214.333 68.5,214C 74.2293,213.328 74.5626,212.328 69.5,211C 70.8333,210.667 72.1667,210.333 73.5,210C 70.1667,209.667 66.8333,209.333 63.5,209C 69.2293,208.328 69.5626,207.328 64.5,206C 65.8333,205.667 67.1667,205.333 68.5,205C 65.1667,204.667 61.8333,204.333 58.5,204C 64.2293,203.328 64.5626,202.328 59.5,201C 60.8333,200.667 62.1667,200.333 63.5,200C 60.1667,199.667 56.8333,199.333 53.5,199C 59.2293,198.328 59.5626,197.328 54.5,196C 55.8333,195.667 57.1667,195.333 58.5,195C 55.1667,194.667 51.8333,194.333 48.5,194C 54.2293,193.328 54.5626,192.328 49.5,191C 50.8333,190.667 52.1667,190.333 53.5,190C 50.1667,189.667 46.8333,189.333 43.5,189C 49.2293,188.328 49.5626,187.328 44.5,186C 45.8333,185.667 47.1667,185.333 48.5,185C 45.1667,184.667 41.8333,184.333 38.5,184C 44.2293,183.328 44.5626,182.328 39.5,181C 40.8333,180.667 42.1667,180.333 43.5,180C 40.1667,179.667 36.8333,179.333 33.5,179C 39.2293,178.328 39.5626,177.328 34.5,176C 35.8333,175.667 37.1667,175.333 38.5,175C 35.1667,174.667 31.8333,174.333 28.5,174C 34.2293,173.328 34.5626,172.328 29.5,171C 30.8333,170.667 32.1667,170.333 33.5,170C 30.1667,169.667 26.8333,169.333 23.5,169C 29.2293,168.328 29.5626,167.328 24.5,166C 25.8333,165.667 27.1667,165.333 28.5,165C 25.1667,164.667 21.8333,164.333 18.5,164C 24.2293,163.328 24.5626,162.328 19.5,161C 20.8333,160.667 22.1667,160.333 23.5,160C 20.1667,159.667 16.8333,159.333 13.5,159C 19.2293,158.328 19.5626,157.328 14.5,156C 19.5409,154.992 19.2076,154.492 13.5,154.5C 13.19,151.287 13.5233,148.287 14.5,145.5 Z"/></g>
<g><path style="opacity:1" fill="#060303" d="M 206.5,144.5 C 211.407,144.551 214.907,146.884 217,151.5C 218.196,157.052 217.363,162.219 214.5,167C 208.68,168.919 204.847,166.752 203,160.5C 201.52,154.451 202.686,149.118 206.5,144.5 Z"/></g>
<g><path style="opacity:1" fill="#986155" d="M 165.5,145.5 C 167.17,145.751 168.67,146.418 170,147.5C 172.123,160.437 173.623,173.437 174.5,186.5C 162.926,188.87 151.26,190.37 139.5,191C 139,190.5 138.5,190 138,189.5C 135.039,177.696 132.206,165.863 129.5,154C 129.424,151.244 130.757,150.077 133.5,150.5C 132.637,152.895 132.637,155.229 133.5,157.5C 135.942,154.798 138.276,151.965 140.5,149C 149.023,148.156 157.357,146.99 165.5,145.5 Z"/></g>
<g><path style="opacity:1" fill="#ecacb3" d="M 239.5,149.5 C 240.873,149.343 242.207,149.51 243.5,150C 242.833,150.333 242.167,150.667 241.5,151C 243.384,151.216 245.051,151.883 246.5,153C 245.5,153.333 244.5,153.667 243.5,154C 245.167,154.333 246.833,154.667 248.5,155C 247.833,155.333 247.167,155.667 246.5,156C 248.384,156.216 250.051,156.883 251.5,158C 250.5,158.333 249.5,158.667 248.5,159C 250.167,159.333 251.833,159.667 253.5,160C 252.833,160.333 252.167,160.667 251.5,161C 253.384,161.216 255.051,161.883 256.5,163C 255.5,163.333 254.5,163.667 253.5,164C 255.167,164.333 256.833,164.667 258.5,165C 257.833,165.333 257.167,165.667 256.5,166C 258.384,166.216 260.051,166.883 261.5,168C 260.5,168.333 259.5,168.667 258.5,169C 260.167,169.333 261.833,169.667 263.5,170C 262.833,170.333 262.167,170.667 261.5,171C 263.384,171.216 265.051,171.883 266.5,173C 265.5,173.333 264.5,173.667 263.5,174C 265.167,174.333 266.833,174.667 268.5,175C 267.833,175.333 267.167,175.667 266.5,176C 268.384,176.216 270.051,176.883 271.5,178C 270.5,178.333 269.5,178.667 268.5,179C 270.167,179.333 271.833,179.667 273.5,180C 272.833,180.333 272.167,180.667 271.5,181C 273.384,181.216 275.051,181.883 276.5,183C 275.5,183.333 274.5,183.667 273.5,184C 275.167,184.333 276.833,184.667 278.5,185C 277.833,185.333 277.167,185.667 276.5,186C 278.384,186.216 280.051,186.883 281.5,188C 280.5,188.333 279.5,188.667 278.5,189C 280.167,189.333 281.833,189.667 283.5,190C 282.833,190.333 282.167,190.667 281.5,191C 283.384,191.216 285.051,191.883 286.5,193C 285.5,193.333 284.5,193.667 283.5,194C 285.167,194.333 286.833,194.667 288.5,195C 287.833,195.333 287.167,195.667 286.5,196C 288.384,196.216 290.051,196.883 291.5,198C 290.5,198.333 289.5,198.667 288.5,199C 290.167,199.333 291.833,199.667 293.5,200C 292.833,200.333 292.167,200.667 291.5,201C 293.384,201.216 295.051,201.883 296.5,203C 295.5,203.333 294.5,203.667 293.5,204C 295.167,204.333 296.833,204.667 298.5,205C 297.833,205.333 297.167,205.667 296.5,206C 298.384,206.216 300.051,206.883 301.5,208C 300.5,208.333 299.5,208.667 298.5,209C 300.167,209.333 301.833,209.667 303.5,210C 302.833,210.333 302.167,210.667 301.5,211C 303.384,211.216 305.051,211.883 306.5,213C 305.5,213.333 304.5,213.667 303.5,214C 305.167,214.333 306.833,214.667 308.5,215C 307.833,215.333 307.167,215.667 306.5,216C 308.384,216.216 310.051,216.883 311.5,218C 310.5,218.333 309.5,218.667 308.5,219C 310.167,219.333 311.833,219.667 313.5,220C 312.833,220.333 312.167,220.667 311.5,221C 313.384,221.216 315.051,221.883 316.5,223C 315.5,223.333 314.5,223.667 313.5,224C 315.167,224.333 316.833,224.667 318.5,225C 317.833,225.333 317.167,225.667 316.5,226C 318.384,226.216 320.051,226.883 321.5,228C 320.5,228.333 319.5,228.667 318.5,229C 320.167,229.333 321.833,229.667 323.5,230C 322.833,230.333 322.167,230.667 321.5,231C 323.247,231.352 324.914,231.852 326.5,232.5C 323.957,239.919 320.623,246.919 316.5,253.5C 312.71,253.992 312.044,253.159 314.5,251C 313.167,250.667 311.833,250.333 310.5,250C 311.167,249.667 311.833,249.333 312.5,249C 310.833,248.667 309.167,248.333 307.5,248C 309.912,245.965 309.245,244.965 305.5,245C 306.167,244.667 306.833,244.333 307.5,244C 305.833,243.667 304.167,243.333 302.5,243C 304.912,240.965 304.245,239.965 300.5,240C 301.167,239.667 301.833,239.333 302.5,239C 300.833,238.667 299.167,238.333 297.5,238C 299.912,235.965 299.245,234.965 295.5,235C 296.167,234.667 296.833,234.333 297.5,234C 295.833,233.667 294.167,233.333 292.5,233C 294.912,230.965 294.245,229.965 290.5,230C 291.167,229.667 291.833,229.333 292.5,229C 290.833,228.667 289.167,228.333 287.5,228C 289.912,225.965 289.245,224.965 285.5,225C 286.167,224.667 286.833,224.333 287.5,224C 285.833,223.667 284.167,223.333 282.5,223C 284.912,220.965 284.245,219.965 280.5,220C 281.167,219.667 281.833,219.333 282.5,219C 280.833,218.667 279.167,218.333 277.5,218C 279.912,215.965 279.245,214.965 275.5,215C 276.167,214.667 276.833,214.333 277.5,214C 275.833,213.667 274.167,213.333 272.5,213C 274.912,210.965 274.245,209.965 270.5,210C 271.167,209.667 271.833,209.333 272.5,209C 270.833,208.667 269.167,208.333 267.5,208C 269.912,205.965 269.245,204.965 265.5,205C 266.167,204.667 266.833,204.333 267.5,204C 265.833,203.667 264.167,203.333 262.5,203C 264.912,200.965 264.245,199.965 260.5,200C 261.167,199.667 261.833,199.333 262.5,199C 260.833,198.667 259.167,198.333 257.5,198C 259.912,195.965 259.245,194.965 255.5,195C 256.167,194.667 256.833,194.333 257.5,194C 255.833,193.667 254.167,193.333 252.5,193C 254.912,190.965 254.245,189.965 250.5,190C 251.167,189.667 251.833,189.333 252.5,189C 251.207,188.51 249.873,188.343 248.5,188.5C 245.036,175.641 242.036,162.641 239.5,149.5 Z"/></g>
<g><path style="opacity:1" fill="#050302" d="M 150.5,153.5 C 155.919,152.959 159.419,155.293 161,160.5C 161.667,164.167 161.667,167.833 161,171.5C 155.992,178.34 151.325,178.007 147,170.5C 146.333,166.167 146.333,161.833 147,157.5C 148.376,156.295 149.542,154.962 150.5,153.5 Z"/></g>
<g><path style="opacity:1" fill="#df92d1" d="M 13.5,154.5 C 19.2076,154.492 19.5409,154.992 14.5,156C 19.5626,157.328 19.2293,158.328 13.5,159C 16.8333,159.333 20.1667,159.667 23.5,160C 22.1667,160.333 20.8333,160.667 19.5,161C 24.5626,162.328 24.2293,163.328 18.5,164C 21.8333,164.333 25.1667,164.667 28.5,165C 27.1667,165.333 25.8333,165.667 24.5,166C 29.5626,167.328 29.2293,168.328 23.5,169C 26.8333,169.333 30.1667,169.667 33.5,170C 32.1667,170.333 30.8333,170.667 29.5,171C 34.5626,172.328 34.2293,173.328 28.5,174C 31.8333,174.333 35.1667,174.667 38.5,175C 37.1667,175.333 35.8333,175.667 34.5,176C 39.5626,177.328 39.2293,178.328 33.5,179C 36.8333,179.333 40.1667,179.667 43.5,180C 42.1667,180.333 40.8333,180.667 39.5,181C 44.5626,182.328 44.2293,183.328 38.5,184C 41.8333,184.333 45.1667,184.667 48.5,185C 47.1667,185.333 45.8333,185.667 44.5,186C 49.5626,187.328 49.2293,188.328 43.5,189C 46.8333,189.333 50.1667,189.667 53.5,190C 52.1667,190.333 50.8333,190.667 49.5,191C 54.5626,192.328 54.2293,193.328 48.5,194C 51.8333,194.333 55.1667,194.667 58.5,195C 57.1667,195.333 55.8333,195.667 54.5,196C 59.5626,197.328 59.2293,198.328 53.5,199C 56.8333,199.333 60.1667,199.667 63.5,200C 62.1667,200.333 60.8333,200.667 59.5,201C 64.5626,202.328 64.2293,203.328 58.5,204C 61.8333,204.333 65.1667,204.667 68.5,205C 67.1667,205.333 65.8333,205.667 64.5,206C 69.5626,207.328 69.2293,208.328 63.5,209C 66.8333,209.333 70.1667,209.667 73.5,210C 72.1667,210.333 70.8333,210.667 69.5,211C 74.5626,212.328 74.2293,213.328 68.5,214C 71.8333,214.333 75.1667,214.667 78.5,215C 77.1667,215.333 75.8333,215.667 74.5,216C 79.5626,217.328 79.2293,218.328 73.5,219C 76.8333,219.333 80.1667,219.667 83.5,220C 82.1667,220.333 80.8333,220.667 79.5,221C 84.5626,222.328 84.2293,223.328 78.5,224C 81.8333,224.333 85.1667,224.667 88.5,225C 87.1667,225.333 85.8333,225.667 84.5,226C 89.5626,227.328 89.2293,228.328 83.5,229C 86.8333,229.333 90.1667,229.667 93.5,230C 92.1667,230.333 90.8333,230.667 89.5,231C 94.5626,232.328 94.2293,233.328 88.5,234C 91.8333,234.333 95.1667,234.667 98.5,235C 97.1667,235.333 95.8333,235.667 94.5,236C 99.5626,237.328 99.2293,238.328 93.5,239C 96.8333,239.333 100.167,239.667 103.5,240C 102.167,240.333 100.833,240.667 99.5,241C 104.563,242.328 104.229,243.328 98.5,244C 101.833,244.333 105.167,244.667 108.5,245C 107.167,245.333 105.833,245.667 104.5,246C 109.563,247.328 109.229,248.328 103.5,249C 106.833,249.333 110.167,249.667 113.5,250C 112.167,250.333 110.833,250.667 109.5,251C 114.563,252.328 114.229,253.328 108.5,254C 111.833,254.333 115.167,254.667 118.5,255C 117.167,255.333 115.833,255.667 114.5,256C 119.563,257.328 119.229,258.328 113.5,259C 116.833,259.333 120.167,259.667 123.5,260C 122.167,260.333 120.833,260.667 119.5,261C 124.563,262.328 124.229,263.328 118.5,264C 121.833,264.333 125.167,264.667 128.5,265C 123.206,265.818 123.206,266.318 128.5,266.5C 128.5,267.833 128.5,269.167 128.5,270.5C 126.698,276.713 125.364,283.047 124.5,289.5C 122.213,289.276 120.047,288.609 118,287.5C 116.401,288.071 115.234,289.071 114.5,290.5C 112.009,289.074 109.675,287.241 107.5,285C 108.167,284.667 108.833,284.333 109.5,284C 106.339,282.99 103.339,281.657 100.5,280C 105.833,279.333 105.833,278.667 100.5,278C 99.8333,276.667 98.8333,275.667 97.5,275C 98.1667,274.667 98.8333,274.333 99.5,274C 96.3394,272.99 93.3394,271.657 90.5,270C 95.8333,269.333 95.8333,268.667 90.5,268C 89.8333,266.667 88.8333,265.667 87.5,265C 88.1667,264.667 88.8333,264.333 89.5,264C 86.3394,262.99 83.3394,261.657 80.5,260C 85.8333,259.333 85.8333,258.667 80.5,258C 79.8333,256.667 78.8333,255.667 77.5,255C 78.1667,254.667 78.8333,254.333 79.5,254C 76.3394,252.99 73.3394,251.657 70.5,250C 75.8333,249.333 75.8333,248.667 70.5,248C 69.8333,246.667 68.8333,245.667 67.5,245C 68.1667,244.667 68.8333,244.333 69.5,244C 66.3394,242.99 63.3394,241.657 60.5,240C 65.8333,239.333 65.8333,238.667 60.5,238C 59.8333,236.667 58.8333,235.667 57.5,235C 58.1667,234.667 58.8333,234.333 59.5,234C 56.3394,232.99 53.3394,231.657 50.5,230C 55.8333,229.333 55.8333,228.667 50.5,228C 49.8333,226.667 48.8333,225.667 47.5,225C 48.1667,224.667 48.8333,224.333 49.5,224C 46.3394,222.99 43.3394,221.657 40.5,220C 45.8333,219.333 45.8333,218.667 40.5,218C 39.8333,216.667 38.8333,215.667 37.5,215C 38.1667,214.667 38.8333,214.333 39.5,214C 36.3394,212.99 33.3394,211.657 30.5,210C 35.8333,209.333 35.8333,208.667 30.5,208C 29.8333,206.667 28.8333,205.667 27.5,205C 28.1667,204.667 28.8333,204.333 29.5,204C 26.3394,202.99 23.3394,201.657 20.5,200C 25.8333,199.333 25.8333,198.667 20.5,198C 19.8333,196.667 18.8333,195.667 17.5,195C 18.1667,194.667 18.8333,194.333 19.5,194C 16.5398,193.826 14.2064,192.66 12.5,190.5C 11.0791,178.31 11.4125,166.31 13.5,154.5 Z"/></g>
<g><path style="opacity:1" fill="#925d52" d="M 124.5,153.5 C 126.463,155.967 127.629,158.967 128,162.5C 129.465,168.036 127.298,170.536 121.5,170C 117.167,170.667 112.833,170.667 108.5,170C 113.365,163.97 118.698,158.47 124.5,153.5 Z"/></g>
<g><path style="opacity:1" fill="#966055" d="M 237.5,162.5 C 241.97,175.895 244.97,189.729 246.5,204C 243.477,239.023 224.811,260.356 190.5,268C 158.545,270.445 135.712,257.278 122,228.5C 120.267,223.401 118.767,218.234 117.5,213C 119.312,211.188 121.145,209.355 123,207.5C 123.667,205.5 123.667,203.5 123,201.5C 118.15,210.346 110.984,213.179 101.5,210C 99.6984,205.316 97.5317,200.816 95,196.5C 91.133,180.033 97.633,172.533 114.5,174C 117.621,174.726 120.287,176.226 122.5,178.5C 123.681,176.865 123.681,175.198 122.5,173.5C 125.167,172.167 127.833,172.167 130.5,173.5C 132.155,179.118 133.655,184.784 135,190.5C 135.465,191.931 136.299,193.097 137.5,194C 149.907,193.705 162.24,192.372 174.5,190C 177.018,188.13 178.352,185.63 178.5,182.5C 177.458,176.871 176.791,171.204 176.5,165.5C 181.507,165.249 186.507,164.916 191.5,164.5C 192.099,170.524 192.932,176.524 194,182.5C 195.32,185.901 197.82,187.235 201.5,186.5C 212.683,185.562 223.683,183.728 234.5,181C 235.333,180.167 236.167,179.333 237,178.5C 237.499,173.177 237.666,167.844 237.5,162.5 Z"/></g>
<g><path style="opacity:1" fill="#1e1d24" d="M 185.5,174.5 C 186.5,174.5 187.5,174.5 188.5,174.5C 188.019,179.603 189.519,183.936 193,187.5C 193.772,195.731 189.939,199.397 181.5,198.5C 181.5,197.167 181.5,195.833 181.5,194.5C 183.857,194.663 186.19,194.497 188.5,194C 189.574,193.261 190.241,192.261 190.5,191C 186.144,186.364 184.477,180.864 185.5,174.5 Z"/></g>
<g><path style="opacity:1" fill="#100908" d="M 104.5,178.5 C 107.807,178.063 110.807,178.73 113.5,180.5C 113.167,181.5 112.5,182.167 111.5,182.5C 110.109,181.355 108.776,181.355 107.5,182.5C 109.883,186.512 110.883,190.845 110.5,195.5C 109.5,195.5 108.5,195.5 107.5,195.5C 107.452,191.187 106.285,187.187 104,183.5C 102.898,185.381 101.565,187.048 100,188.5C 98.9412,188.37 98.1079,187.87 97.5,187C 98.9732,183.369 101.306,180.536 104.5,178.5 Z"/></g>
<g><path style="opacity:1" fill="#eaa9b6" d="M 248.5,188.5 C 249.873,188.343 251.207,188.51 252.5,189C 251.833,189.333 251.167,189.667 250.5,190C 254.245,189.965 254.912,190.965 252.5,193C 254.167,193.333 255.833,193.667 257.5,194C 256.833,194.333 256.167,194.667 255.5,195C 259.245,194.965 259.912,195.965 257.5,198C 259.167,198.333 260.833,198.667 262.5,199C 261.833,199.333 261.167,199.667 260.5,200C 264.245,199.965 264.912,200.965 262.5,203C 264.167,203.333 265.833,203.667 267.5,204C 266.833,204.333 266.167,204.667 265.5,205C 269.245,204.965 269.912,205.965 267.5,208C 269.167,208.333 270.833,208.667 272.5,209C 271.833,209.333 271.167,209.667 270.5,210C 274.245,209.965 274.912,210.965 272.5,213C 274.167,213.333 275.833,213.667 277.5,214C 276.833,214.333 276.167,214.667 275.5,215C 279.245,214.965 279.912,215.965 277.5,218C 279.167,218.333 280.833,218.667 282.5,219C 281.833,219.333 281.167,219.667 280.5,220C 284.245,219.965 284.912,220.965 282.5,223C 284.167,223.333 285.833,223.667 287.5,224C 286.833,224.333 286.167,224.667 285.5,225C 289.245,224.965 289.912,225.965 287.5,228C 289.167,228.333 290.833,228.667 292.5,229C 291.833,229.333 291.167,229.667 290.5,230C 294.245,229.965 294.912,230.965 292.5,233C 294.167,233.333 295.833,233.667 297.5,234C 296.833,234.333 296.167,234.667 295.5,235C 299.245,234.965 299.912,235.965 297.5,238C 299.167,238.333 300.833,238.667 302.5,239C 301.833,239.333 301.167,239.667 300.5,240C 304.245,239.965 304.912,240.965 302.5,243C 304.167,243.333 305.833,243.667 307.5,244C 306.833,244.333 306.167,244.667 305.5,245C 309.245,244.965 309.912,245.965 307.5,248C 309.167,248.333 310.833,248.667 312.5,249C 311.833,249.333 311.167,249.667 310.5,250C 311.833,250.333 313.167,250.667 314.5,251C 312.044,253.159 312.71,253.992 316.5,253.5C 314.007,259.98 310.341,265.646 305.5,270.5C 305.082,269.778 304.416,269.278 303.5,269C 304.5,268.667 305.5,268.333 306.5,268C 304.35,265.672 301.683,264.339 298.5,264C 299.5,263.667 300.5,263.333 301.5,263C 299.35,260.672 296.683,259.339 293.5,259C 294.5,258.667 295.5,258.333 296.5,258C 294.35,255.672 291.683,254.339 288.5,254C 289.5,253.667 290.5,253.333 291.5,253C 289.35,250.672 286.683,249.339 283.5,249C 284.5,248.667 285.5,248.333 286.5,248C 284.35,245.672 281.683,244.339 278.5,244C 279.5,243.667 280.5,243.333 281.5,243C 279.35,240.672 276.683,239.339 273.5,239C 274.5,238.667 275.5,238.333 276.5,238C 274.35,235.672 271.683,234.339 268.5,234C 269.5,233.667 270.5,233.333 271.5,233C 269.35,230.672 266.683,229.339 263.5,229C 264.5,228.667 265.5,228.333 266.5,228C 264.35,225.672 261.683,224.339 258.5,224C 259.5,223.667 260.5,223.333 261.5,223C 259.35,220.672 256.683,219.339 253.5,219C 254.5,218.667 255.5,218.333 256.5,218C 254.028,216.127 251.695,214.294 249.5,212.5C 249.558,204.479 249.224,196.479 248.5,188.5 Z"/></g>
<g><path style="opacity:1" fill="#de90d5" d="M 12.5,190.5 C 14.2064,192.66 16.5398,193.826 19.5,194C 18.8333,194.333 18.1667,194.667 17.5,195C 18.8333,195.667 19.8333,196.667 20.5,198C 25.8333,198.667 25.8333,199.333 20.5,200C 23.3394,201.657 26.3394,202.99 29.5,204C 28.8333,204.333 28.1667,204.667 27.5,205C 28.8333,205.667 29.8333,206.667 30.5,208C 35.8333,208.667 35.8333,209.333 30.5,210C 33.3394,211.657 36.3394,212.99 39.5,214C 38.8333,214.333 38.1667,214.667 37.5,215C 38.8333,215.667 39.8333,216.667 40.5,218C 45.8333,218.667 45.8333,219.333 40.5,220C 43.3394,221.657 46.3394,222.99 49.5,224C 48.8333,224.333 48.1667,224.667 47.5,225C 48.8333,225.667 49.8333,226.667 50.5,228C 55.8333,228.667 55.8333,229.333 50.5,230C 53.3394,231.657 56.3394,232.99 59.5,234C 58.8333,234.333 58.1667,234.667 57.5,235C 58.8333,235.667 59.8333,236.667 60.5,238C 65.8333,238.667 65.8333,239.333 60.5,240C 63.3394,241.657 66.3394,242.99 69.5,244C 68.8333,244.333 68.1667,244.667 67.5,245C 68.8333,245.667 69.8333,246.667 70.5,248C 75.8333,248.667 75.8333,249.333 70.5,250C 73.3394,251.657 76.3394,252.99 79.5,254C 78.8333,254.333 78.1667,254.667 77.5,255C 78.8333,255.667 79.8333,256.667 80.5,258C 85.8333,258.667 85.8333,259.333 80.5,260C 83.3394,261.657 86.3394,262.99 89.5,264C 88.8333,264.333 88.1667,264.667 87.5,265C 88.8333,265.667 89.8333,266.667 90.5,268C 95.8333,268.667 95.8333,269.333 90.5,270C 93.3394,271.657 96.3394,272.99 99.5,274C 98.8333,274.333 98.1667,274.667 97.5,275C 98.8333,275.667 99.8333,276.667 100.5,278C 105.833,278.667 105.833,279.333 100.5,280C 103.339,281.657 106.339,282.99 109.5,284C 108.833,284.333 108.167,284.667 107.5,285C 109.675,287.241 112.009,289.074 114.5,290.5C 113.925,293.912 112.592,296.912 110.5,299.5C 109.127,299.657 107.793,299.49 106.5,299C 109.167,298 109.167,297 106.5,296C 107.167,295.667 107.833,295.333 108.5,295C 106.167,294.667 103.833,294.333 101.5,294C 104.167,293 104.167,292 101.5,291C 102.167,290.667 102.833,290.333 103.5,290C 101.167,289.667 98.8333,289.333 96.5,289C 99.1667,288 99.1667,287 96.5,286C 97.1667,285.667 97.8333,285.333 98.5,285C 96.1667,284.667 93.8333,284.333 91.5,284C 94.1667,283 94.1667,282 91.5,281C 92.1667,280.667 92.8333,280.333 93.5,280C 91.1667,279.667 88.8333,279.333 86.5,279C 89.1667,278 89.1667,277 86.5,276C 87.1667,275.667 87.8333,275.333 88.5,275C 86.1667,274.667 83.8333,274.333 81.5,274C 84.1667,273 84.1667,272 81.5,271C 82.1667,270.667 82.8333,270.333 83.5,270C 81.1667,269.667 78.8333,269.333 76.5,269C 79.1667,268 79.1667,267 76.5,266C 77.1667,265.667 77.8333,265.333 78.5,265C 76.1667,264.667 73.8333,264.333 71.5,264C 74.1667,263 74.1667,262 71.5,261C 72.1667,260.667 72.8333,260.333 73.5,260C 71.1667,259.667 68.8333,259.333 66.5,259C 69.1667,258 69.1667,257 66.5,256C 67.1667,255.667 67.8333,255.333 68.5,255C 66.1667,254.667 63.8333,254.333 61.5,254C 64.1667,253 64.1667,252 61.5,251C 62.1667,250.667 62.8333,250.333 63.5,250C 61.1667,249.667 58.8333,249.333 56.5,249C 59.1667,248 59.1667,247 56.5,246C 57.1667,245.667 57.8333,245.333 58.5,245C 56.1667,244.667 53.8333,244.333 51.5,244C 54.1667,243 54.1667,242 51.5,241C 52.1667,240.667 52.8333,240.333 53.5,240C 51.1667,239.667 48.8333,239.333 46.5,239C 49.1667,238 49.1667,237 46.5,236C 47.1667,235.667 47.8333,235.333 48.5,235C 46.1667,234.667 43.8333,234.333 41.5,234C 44.1667,233 44.1667,232 41.5,231C 42.1667,230.667 42.8333,230.333 43.5,230C 41.1667,229.667 38.8333,229.333 36.5,229C 39.1667,228 39.1667,227 36.5,226C 37.1667,225.667 37.8333,225.333 38.5,225C 36.1667,224.667 33.8333,224.333 31.5,224C 34.1667,223 34.1667,222 31.5,221C 32.1667,220.667 32.8333,220.333 33.5,220C 31.1667,219.667 28.8333,219.333 26.5,219C 29.1667,218 29.1667,217 26.5,216C 27.1667,215.667 27.8333,215.333 28.5,215C 26.1667,214.667 23.8333,214.333 21.5,214C 24.1667,213 24.1667,212 21.5,211C 22.1667,210.667 22.8333,210.333 23.5,210C 22.3333,209.833 21.1667,209.667 20,209.5C 18.3189,209.608 17.1522,210.275 16.5,211.5C 14.6052,204.744 13.2718,197.744 12.5,190.5 Z"/></g>
<g><path style="opacity:1" fill="#0e0907" d="M 202.5,201.5 C 204.337,201.639 204.67,202.306 203.5,203.5C 202.702,203.043 202.369,202.376 202.5,201.5 Z"/></g>
<g><path style="opacity:1" fill="#dc8dd7" d="M 110.5,299.5 C 109.828,302.343 108.495,304.843 106.5,307C 101.147,309.169 95.8141,311.335 90.5,313.5C 87.0604,311.945 83.7271,310.112 80.5,308C 73.285,302.273 66.285,296.439 59.5,290.5C 37.9254,268.221 23.5921,241.887 16.5,211.5C 17.1522,210.275 18.3189,209.608 20,209.5C 21.1667,209.667 22.3333,209.833 23.5,210C 22.8333,210.333 22.1667,210.667 21.5,211C 24.1667,212 24.1667,213 21.5,214C 23.8333,214.333 26.1667,214.667 28.5,215C 27.8333,215.333 27.1667,215.667 26.5,216C 29.1667,217 29.1667,218 26.5,219C 28.8333,219.333 31.1667,219.667 33.5,220C 32.8333,220.333 32.1667,220.667 31.5,221C 34.1667,222 34.1667,223 31.5,224C 33.8333,224.333 36.1667,224.667 38.5,225C 37.8333,225.333 37.1667,225.667 36.5,226C 39.1667,227 39.1667,228 36.5,229C 38.8333,229.333 41.1667,229.667 43.5,230C 42.8333,230.333 42.1667,230.667 41.5,231C 44.1667,232 44.1667,233 41.5,234C 43.8333,234.333 46.1667,234.667 48.5,235C 47.8333,235.333 47.1667,235.667 46.5,236C 49.1667,237 49.1667,238 46.5,239C 48.8333,239.333 51.1667,239.667 53.5,240C 52.8333,240.333 52.1667,240.667 51.5,241C 54.1667,242 54.1667,243 51.5,244C 53.8333,244.333 56.1667,244.667 58.5,245C 57.8333,245.333 57.1667,245.667 56.5,246C 59.1667,247 59.1667,248 56.5,249C 58.8333,249.333 61.1667,249.667 63.5,250C 62.8333,250.333 62.1667,250.667 61.5,251C 64.1667,252 64.1667,253 61.5,254C 63.8333,254.333 66.1667,254.667 68.5,255C 67.8333,255.333 67.1667,255.667 66.5,256C 69.1667,257 69.1667,258 66.5,259C 68.8333,259.333 71.1667,259.667 73.5,260C 72.8333,260.333 72.1667,260.667 71.5,261C 74.1667,262 74.1667,263 71.5,264C 73.8333,264.333 76.1667,264.667 78.5,265C 77.8333,265.333 77.1667,265.667 76.5,266C 79.1667,267 79.1667,268 76.5,269C 78.8333,269.333 81.1667,269.667 83.5,270C 82.8333,270.333 82.1667,270.667 81.5,271C 84.1667,272 84.1667,273 81.5,274C 83.8333,274.333 86.1667,274.667 88.5,275C 87.8333,275.333 87.1667,275.667 86.5,276C 89.1667,277 89.1667,278 86.5,279C 88.8333,279.333 91.1667,279.667 93.5,280C 92.8333,280.333 92.1667,280.667 91.5,281C 94.1667,282 94.1667,283 91.5,284C 93.8333,284.333 96.1667,284.667 98.5,285C 97.8333,285.333 97.1667,285.667 96.5,286C 99.1667,287 99.1667,288 96.5,289C 98.8333,289.333 101.167,289.667 103.5,290C 102.833,290.333 102.167,290.667 101.5,291C 104.167,292 104.167,293 101.5,294C 103.833,294.333 106.167,294.667 108.5,295C 107.833,295.333 107.167,295.667 106.5,296C 109.167,297 109.167,298 106.5,299C 107.793,299.49 109.127,299.657 110.5,299.5 Z"/></g>
<g><path style="opacity:1" fill="#0e0907" d="M 152.5,209.5 C 154.337,209.639 154.67,210.306 153.5,211.5C 152.702,211.043 152.369,210.376 152.5,209.5 Z"/></g>
<g><path style="opacity:1" fill="#0e0b0a" d="M 208.5,209.5 C 219.496,208.426 223.83,213.426 221.5,224.5C 222.675,224.281 223.675,224.614 224.5,225.5C 222.774,228.856 220.774,232.023 218.5,235C 210.635,234.91 202.968,235.744 195.5,237.5C 190.73,235.464 185.73,234.964 180.5,236C 174.155,237.102 167.822,238.269 161.5,239.5C 157.629,238.547 154.295,236.88 151.5,234.5C 152.242,232.406 152.909,230.239 153.5,228C 150.549,218.114 154.216,212.614 164.5,211.5C 164.291,212.086 163.957,212.586 163.5,213C 172.167,213.667 180.833,213.667 189.5,213C 189.998,211.842 190.831,211.009 192,210.5C 193.365,211.456 194.865,212.122 196.5,212.5C 200.57,211.311 204.57,210.311 208.5,209.5 Z"/></g>
<g><path style="opacity:1" fill="#0d0807" d="M 236.5,210.5 C 238.337,210.639 238.67,211.306 237.5,212.5C 236.702,212.043 236.369,211.376 236.5,210.5 Z"/></g>
<g><path style="opacity:1" fill="#f5f5f5" d="M 207.5,213.5 C 208.833,213.5 210.167,213.5 211.5,213.5C 212.296,217.684 210.963,220.85 207.5,223C 208.766,223.309 209.933,223.809 211,224.5C 211.761,227.053 212.594,229.553 213.5,232C 203.515,231.62 193.515,231.62 183.5,232C 176.79,233.062 170.124,234.229 163.5,235.5C 162.704,231.316 164.037,228.15 167.5,226C 164.242,223.763 162.575,220.597 162.5,216.5C 172.839,216.666 183.172,216.5 193.5,216C 198.412,215.778 203.079,214.945 207.5,213.5 Z"/></g>
<g><path style="opacity:1" fill="#e9a6b9" d="M 249.5,212.5 C 251.695,214.294 254.028,216.127 256.5,218C 255.5,218.333 254.5,218.667 253.5,219C 256.683,219.339 259.35,220.672 261.5,223C 260.5,223.333 259.5,223.667 258.5,224C 261.683,224.339 264.35,225.672 266.5,228C 265.5,228.333 264.5,228.667 263.5,229C 266.683,229.339 269.35,230.672 271.5,233C 270.5,233.333 269.5,233.667 268.5,234C 271.683,234.339 274.35,235.672 276.5,238C 275.5,238.333 274.5,238.667 273.5,239C 276.683,239.339 279.35,240.672 281.5,243C 280.5,243.333 279.5,243.667 278.5,244C 281.683,244.339 284.35,245.672 286.5,248C 285.5,248.333 284.5,248.667 283.5,249C 286.683,249.339 289.35,250.672 291.5,253C 290.5,253.333 289.5,253.667 288.5,254C 291.683,254.339 294.35,255.672 296.5,258C 295.5,258.333 294.5,258.667 293.5,259C 296.683,259.339 299.35,260.672 301.5,263C 300.5,263.333 299.5,263.667 298.5,264C 301.683,264.339 304.35,265.672 306.5,268C 305.5,268.333 304.5,268.667 303.5,269C 304.416,269.278 305.082,269.778 305.5,270.5C 303.312,274.207 300.645,277.54 297.5,280.5C 294.903,280.279 294.903,279.779 297.5,279C 295.866,278.506 294.199,278.34 292.5,278.5C 292.64,276.876 291.973,275.71 290.5,275C 291.167,274.667 291.833,274.333 292.5,274C 290.866,273.506 289.199,273.34 287.5,273.5C 287.64,271.876 286.973,270.71 285.5,270C 286.167,269.667 286.833,269.333 287.5,269C 285.866,268.506 284.199,268.34 282.5,268.5C 282.64,266.876 281.973,265.71 280.5,265C 281.167,264.667 281.833,264.333 282.5,264C 280.866,263.506 279.199,263.34 277.5,263.5C 277.64,261.876 276.973,260.71 275.5,260C 276.167,259.667 276.833,259.333 277.5,259C 275.866,258.506 274.199,258.34 272.5,258.5C 272.64,256.876 271.973,255.71 270.5,255C 271.167,254.667 271.833,254.333 272.5,254C 270.866,253.506 269.199,253.34 267.5,253.5C 267.64,251.876 266.973,250.71 265.5,250C 266.167,249.667 266.833,249.333 267.5,249C 265.866,248.506 264.199,248.34 262.5,248.5C 262.64,246.876 261.973,245.71 260.5,245C 261.167,244.667 261.833,244.333 262.5,244C 260.866,243.506 259.199,243.34 257.5,243.5C 257.64,241.876 256.973,240.71 255.5,240C 256.167,239.667 256.833,239.333 257.5,239C 255.866,238.506 254.199,238.34 252.5,238.5C 252.64,236.876 251.973,235.71 250.5,235C 251.167,234.667 251.833,234.333 252.5,234C 250.866,233.506 249.199,233.34 247.5,233.5C 247.532,231.381 246.532,230.048 244.5,229.5C 246.963,223.967 248.629,218.3 249.5,212.5 Z"/></g>
<g><path style="opacity:1" fill="#070404" d="M 223.5,214.5 C 225.337,214.639 225.67,215.306 224.5,216.5C 223.702,216.043 223.369,215.376 223.5,214.5 Z"/></g>
<g><path style="opacity:1" fill="#251a17" d="M 132.5,220.5 C 133.5,220.5 134.5,220.5 135.5,220.5C 134.754,224.31 133.754,224.31 132.5,220.5 Z"/></g>
<g><path style="opacity:1" fill="#e7a3bd" d="M 244.5,229.5 C 246.532,230.048 247.532,231.381 247.5,233.5C 249.199,233.34 250.866,233.506 252.5,234C 251.833,234.333 251.167,234.667 250.5,235C 251.973,235.71 252.64,236.876 252.5,238.5C 254.199,238.34 255.866,238.506 257.5,239C 256.833,239.333 256.167,239.667 255.5,240C 256.973,240.71 257.64,241.876 257.5,243.5C 259.199,243.34 260.866,243.506 262.5,244C 261.833,244.333 261.167,244.667 260.5,245C 261.973,245.71 262.64,246.876 262.5,248.5C 264.199,248.34 265.866,248.506 267.5,249C 266.833,249.333 266.167,249.667 265.5,250C 266.973,250.71 267.64,251.876 267.5,253.5C 269.199,253.34 270.866,253.506 272.5,254C 271.833,254.333 271.167,254.667 270.5,255C 271.973,255.71 272.64,256.876 272.5,258.5C 274.199,258.34 275.866,258.506 277.5,259C 276.833,259.333 276.167,259.667 275.5,260C 276.973,260.71 277.64,261.876 277.5,263.5C 279.199,263.34 280.866,263.506 282.5,264C 281.833,264.333 281.167,264.667 280.5,265C 281.973,265.71 282.64,266.876 282.5,268.5C 284.199,268.34 285.866,268.506 287.5,269C 286.833,269.333 286.167,269.667 285.5,270C 286.973,270.71 287.64,271.876 287.5,273.5C 289.199,273.34 290.866,273.506 292.5,274C 291.833,274.333 291.167,274.667 290.5,275C 291.973,275.71 292.64,276.876 292.5,278.5C 294.199,278.34 295.866,278.506 297.5,279C 294.903,279.779 294.903,280.279 297.5,280.5C 290.46,289.874 282.126,297.874 272.5,304.5C 270.737,303.178 269.07,301.678 267.5,300C 268.167,299.667 268.833,299.333 269.5,299C 268.062,298.781 266.729,298.281 265.5,297.5C 266.025,296.808 266.692,296.308 267.5,296C 265.833,295.667 264.167,295.333 262.5,295C 263.167,294.667 263.833,294.333 264.5,294C 263.167,293.667 261.833,293.333 260.5,293C 259.833,291.667 258.833,290.667 257.5,290C 258.167,289.667 258.833,289.333 259.5,289C 258.062,288.781 256.729,288.281 255.5,287.5C 256.025,286.808 256.692,286.308 257.5,286C 255.833,285.667 254.167,285.333 252.5,285C 253.167,284.667 253.833,284.333 254.5,284C 253.167,283.667 251.833,283.333 250.5,283C 249.833,281.667 248.833,280.667 247.5,280C 248.167,279.667 248.833,279.333 249.5,279C 248.062,278.781 246.729,278.281 245.5,277.5C 246.025,276.808 246.692,276.308 247.5,276C 245.833,275.667 244.167,275.333 242.5,275C 243.167,274.667 243.833,274.333 244.5,274C 243.167,273.667 241.833,273.333 240.5,273C 239.833,271.667 238.833,270.667 237.5,270C 238.167,269.667 238.833,269.333 239.5,269C 238.062,268.781 236.729,268.281 235.5,267.5C 236.025,266.808 236.692,266.308 237.5,266C 235.833,265.667 234.167,265.333 232.5,265C 233.167,264.667 233.833,264.333 234.5,264C 233.167,263.667 231.833,263.333 230.5,263C 229.833,261.667 228.833,260.667 227.5,260C 228.167,259.667 228.833,259.333 229.5,259C 227.563,258.878 226.23,258.045 225.5,256.5C 233.808,248.864 240.141,239.864 244.5,229.5 Z"/></g>
<g><path style="opacity:1" fill="#0c0605" d="M 141.5,240.5 C 142.251,239.427 143.251,239.26 144.5,240C 143.648,241.728 142.648,241.895 141.5,240.5 Z"/></g>
<g><path style="opacity:1" fill="#0d0807" d="M 152.5,245.5 C 154.337,245.639 154.67,246.306 153.5,247.5C 152.702,247.043 152.369,246.376 152.5,245.5 Z"/></g>
<g><path style="opacity:1" fill="#090505" d="M 168.5,245.5 C 170.337,245.639 170.67,246.306 169.5,247.5C 168.702,247.043 168.369,246.376 168.5,245.5 Z"/></g>
<g><path style="opacity:1" fill="#0d0807" d="M 187.5,245.5 C 189.337,245.639 189.67,246.306 188.5,247.5C 187.702,247.043 187.369,246.376 187.5,245.5 Z"/></g>
<g><path style="opacity:1" fill="#0e0907" d="M 201.5,249.5 C 203.337,249.639 203.67,250.306 202.5,251.5C 201.702,251.043 201.369,250.376 201.5,249.5 Z"/></g>
<g><path style="opacity:1" fill="#0e0908" d="M 210.5,251.5 C 212.337,251.639 212.67,252.306 211.5,253.5C 210.702,253.043 210.369,252.376 210.5,251.5 Z"/></g>
<g><path style="opacity:1" fill="#0d0807" d="M 159.5,252.5 C 161.337,252.639 161.67,253.306 160.5,254.5C 159.702,254.043 159.369,253.376 159.5,252.5 Z"/></g>
<g><path style="opacity:1" fill="#996256" d="M 136.5,255.5 C 141,258.478 145.667,261.311 150.5,264C 162.93,280.714 179.596,288.547 200.5,287.5C 200.5,289.5 200.5,291.5 200.5,293.5C 176.276,298.273 152.276,297.44 128.5,291C 127.941,290.275 127.608,289.442 127.5,288.5C 130.352,277.421 133.352,266.421 136.5,255.5 Z"/></g>
<g><path style="opacity:1" fill="#251a17" d="M 174.5,255.5 C 175.5,255.5 176.5,255.5 177.5,255.5C 176.754,259.31 175.754,259.31 174.5,255.5 Z"/></g>
<g><path style="opacity:1" fill="#e49dc3" d="M 225.5,256.5 C 226.23,258.045 227.563,258.878 229.5,259C 228.833,259.333 228.167,259.667 227.5,260C 228.833,260.667 229.833,261.667 230.5,263C 231.833,263.333 233.167,263.667 234.5,264C 233.833,264.333 233.167,264.667 232.5,265C 234.167,265.333 235.833,265.667 237.5,266C 236.692,266.308 236.025,266.808 235.5,267.5C 236.729,268.281 238.062,268.781 239.5,269C 238.833,269.333 238.167,269.667 237.5,270C 238.833,270.667 239.833,271.667 240.5,273C 241.833,273.333 243.167,273.667 244.5,274C 243.833,274.333 243.167,274.667 242.5,275C 244.167,275.333 245.833,275.667 247.5,276C 246.692,276.308 246.025,276.808 245.5,277.5C 246.729,278.281 248.062,278.781 249.5,279C 248.833,279.333 248.167,279.667 247.5,280C 248.833,280.667 249.833,281.667 250.5,283C 251.833,283.333 253.167,283.667 254.5,284C 253.833,284.333 253.167,284.667 252.5,285C 254.167,285.333 255.833,285.667 257.5,286C 256.692,286.308 256.025,286.808 255.5,287.5C 256.729,288.281 258.062,288.781 259.5,289C 258.833,289.333 258.167,289.667 257.5,290C 258.833,290.667 259.833,291.667 260.5,293C 261.833,293.333 263.167,293.667 264.5,294C 263.833,294.333 263.167,294.667 262.5,295C 264.167,295.333 265.833,295.667 267.5,296C 266.692,296.308 266.025,296.808 265.5,297.5C 266.729,298.281 268.062,298.781 269.5,299C 268.833,299.333 268.167,299.667 267.5,300C 269.07,301.678 270.737,303.178 272.5,304.5C 265.852,310.162 258.519,314.829 250.5,318.5C 250.389,317.883 250.056,317.383 249.5,317C 241.347,313.727 233.013,311.06 224.5,309C 220.652,302.973 216.318,297.307 211.5,292C 209.1,291.814 206.766,291.314 204.5,290.5C 202.008,283.374 200.675,276.041 200.5,268.5C 209.756,266.372 218.089,262.372 225.5,256.5 Z"/></g>
<g><path style="opacity:1" fill="#0f0908" d="M 165.5,257.5 C 167.337,257.639 167.67,258.306 166.5,259.5C 165.702,259.043 165.369,258.376 165.5,257.5 Z"/></g>
<g><path style="opacity:1" fill="#0d0807" d="M 189.5,257.5 C 191.337,257.639 191.67,258.306 190.5,259.5C 189.702,259.043 189.369,258.376 189.5,257.5 Z"/></g>
<g><path style="opacity:1" fill="#dbd8f9" d="M 118.5,291.5 C 140.875,299.079 163.875,301.579 187.5,299C 194.592,297.929 201.592,296.429 208.5,294.5C 213.199,298.874 217.199,303.874 220.5,309.5C 210.904,313.451 200.904,315.618 190.5,316C 171.756,317.109 153.089,316.443 134.5,314C 126.91,312.65 119.577,310.483 112.5,307.5C 113.44,302.041 115.44,296.708 118.5,291.5 Z"/></g>
<g><path style="opacity:1" fill="#fce8a2" d="M 246.5,319.5 C 242.119,323.024 237.119,325.524 231.5,327C 203.504,336.792 174.837,339.458 145.5,335C 127.132,331.806 110.132,325.306 94.5,315.5C 98.9466,313.279 103.613,311.613 108.5,310.5C 116.312,313.287 124.312,315.453 132.5,317C 163.243,322.794 193.576,321.294 223.5,312.5C 231.443,314.214 239.109,316.547 246.5,319.5 Z"/></g>
<g><path style="opacity:0.082" fill="#f7bfb2" d="M 91.5,329.5 C 91.56,328.957 91.8933,328.624 92.5,328.5C 96.3888,330.274 100.055,332.274 103.5,334.5C 99.2769,333.389 95.2769,331.722 91.5,329.5 Z"/></g>
</svg>
